<svg width="32" height="32" viewBox="0 0 32 32" fill="none" xmlns="http://www.w3.org/2000/svg">
<path d="M16 22C19.3137 22 22 19.3137 22 16C22 12.6863 19.3137 10 16 10C12.6863 10 10 12.6863 10 16C10 19.3137 12.6863 22 16 22Z" fill="#FFBCBB"/>
<path d="M16 16L28 4" stroke="#333333" stroke-width="2" stroke-linecap="round" stroke-linejoin="round"/>
<path d="M24.4853 7.51474C22.3596 5.39326 19.5151 4.14688 16.5145 4.02219C13.5139 3.89749 10.5758 4.90356 8.28141 6.84137C5.98705 8.77917 4.50357 11.5075 4.12447 14.4867C3.74536 17.4659 4.49824 20.4788 6.23417 22.9295C7.97009 25.3802 10.5626 27.09 13.4988 27.7208C16.435 28.3516 19.501 27.8573 22.0903 26.3358C24.6795 24.8143 26.6034 22.3764 27.4813 19.5044C28.3592 16.6324 28.1271 13.5355 26.831 10.8263" stroke="#333333" stroke-width="2" stroke-linecap="round" stroke-linejoin="round"/>
<path d="M20.2426 11.7573C19.2507 10.7654 17.9425 10.1525 16.5455 10.025C15.1485 9.89747 13.751 10.2635 12.5959 11.0595C11.4407 11.8554 10.601 13.031 10.2227 14.3818C9.84433 15.7326 9.95127 17.1733 10.5249 18.4535C11.0985 19.7336 12.1026 20.7723 13.3626 21.389C14.6226 22.0057 16.0588 22.1614 17.4217 21.829C18.7846 21.4967 19.9879 20.6973 20.8225 19.5698C21.6572 18.4423 22.0704 17.058 21.9903 15.6575" stroke="#333333" stroke-width="2" stroke-linecap="round" stroke-linejoin="round"/>
</svg>
