<svg width="32" height="32" viewBox="0 0 32 32" fill="none" xmlns="http://www.w3.org/2000/svg">
<path d="M11.7573 23.0711C10.3431 27.3137 4.68628 27.3137 4.68628 27.3137C4.68628 27.3137 4.68628 21.6569 8.92892 20.2427L11.7573 23.0711Z" fill="#FFBCBB"/>
<path d="M23.0711 14.5858V22.6569C23.0711 22.7882 23.0452 22.9182 22.9949 23.0396C22.9447 23.1609 22.871 23.2711 22.7782 23.364L18.7355 27.4067C18.6075 27.5347 18.4471 27.6255 18.2716 27.6696C18.096 27.7136 17.9118 27.7091 17.7386 27.6567C17.5653 27.6042 17.4096 27.5058 17.2879 27.3717C17.1663 27.2377 17.0833 27.0732 17.0478 26.8957L16 21.6569L23.0711 14.5858Z" fill="#FFBCBB"/>
<path d="M17.4142 8.92896H9.34314C9.21181 8.92895 9.08178 8.95482 8.96045 9.00508C8.83913 9.05533 8.72889 9.12899 8.63603 9.22185L4.59331 13.2646C4.46532 13.3926 4.37447 13.5529 4.33045 13.7284C4.28642 13.904 4.29087 14.0882 4.34332 14.2615C4.39577 14.4347 4.49426 14.5904 4.62828 14.7121C4.76229 14.8338 4.92681 14.9168 5.1043 14.9523L10.3431 16L17.4142 8.92896Z" fill="#FFBCBB"/>
<path d="M11.7573 23.0711C10.3431 27.3137 4.68628 27.3137 4.68628 27.3137C4.68628 27.3137 4.68628 21.6569 8.92892 20.2427" stroke="#333333" stroke-width="2" stroke-linecap="round" stroke-linejoin="round"/>
<path d="M24.4853 13.1715L16 21.6568L10.3431 15.9999L18.8284 7.51466C22.0414 4.30164 25.2545 4.33298 26.6247 4.53743C26.8357 4.56888 27.031 4.66727 27.1818 4.8181C27.3327 4.96894 27.4311 5.16423 27.4625 5.37521C27.667 6.74548 27.6983 9.9585 24.4853 13.1715Z" stroke="#333333" stroke-width="2" stroke-linecap="round" stroke-linejoin="round"/>
<path d="M23.0711 14.5858V22.6569C23.0711 22.7882 23.0452 22.9182 22.9949 23.0396C22.9447 23.1609 22.871 23.2711 22.7782 23.364L18.7355 27.4067C18.6075 27.5347 18.4471 27.6255 18.2716 27.6696C18.096 27.7136 17.9118 27.7091 17.7386 27.6567C17.5653 27.6042 17.4096 27.5058 17.2879 27.3717C17.1663 27.2377 17.0833 27.0732 17.0478 26.8957L16 21.6569" stroke="#333333" stroke-width="2" stroke-linecap="round" stroke-linejoin="round"/>
<path d="M17.4142 8.92896H9.34314C9.21181 8.92895 9.08178 8.95482 8.96045 9.00508C8.83913 9.05533 8.72889 9.12899 8.63603 9.22185L4.59331 13.2646C4.46532 13.3926 4.37447 13.5529 4.33045 13.7284C4.28642 13.904 4.29087 14.0882 4.34332 14.2615C4.39577 14.4347 4.49426 14.5904 4.62828 14.7121C4.76229 14.8338 4.92681 14.9168 5.1043 14.9523L10.3431 16" stroke="#333333" stroke-width="2" stroke-linecap="round" stroke-linejoin="round"/>
</svg>
