<svg width="32" height="32" viewBox="0 0 32 32" fill="none" xmlns="http://www.w3.org/2000/svg">
<path d="M24.5002 27C26.4332 27 28.0002 25.433 28.0002 23.5C28.0002 21.567 26.4332 20 24.5002 20C22.5672 20 21.0002 21.567 21.0002 23.5C21.0002 25.433 22.5672 27 24.5002 27Z" fill="#FFBCBB"/>
<path d="M7.5 12C9.433 12 11 10.433 11 8.5C11 6.567 9.433 5 7.5 5C5.567 5 4 6.567 4 8.5C4 10.433 5.567 12 7.5 12Z" fill="#FFBCBB"/>
<path d="M24.5002 27C26.4332 27 28.0002 25.433 28.0002 23.5C28.0002 21.567 26.4332 20 24.5002 20C22.5672 20 21.0002 21.567 21.0002 23.5C21.0002 25.433 22.5672 27 24.5002 27Z" stroke="#333333" stroke-width="2" stroke-linecap="round" stroke-linejoin="round"/>
<path d="M24.5003 20L24.5001 14.9851C24.5 13.3939 23.8679 11.8679 22.7427 10.7427L18 6" stroke="#333333" stroke-width="2" stroke-linecap="round" stroke-linejoin="round"/>
<path d="M18 11V6H23" stroke="#333333" stroke-width="2" stroke-linecap="round" stroke-linejoin="round"/>
<path d="M7.5 12C9.433 12 11 10.433 11 8.5C11 6.567 9.433 5 7.5 5C5.567 5 4 6.567 4 8.5C4 10.433 5.567 12 7.5 12Z" stroke="#333333" stroke-width="2" stroke-linecap="round" stroke-linejoin="round"/>
<path d="M7.5 12L7.5002 17.0149C7.50027 18.6061 8.1324 20.1321 9.25756 21.2573L14.0003 26" stroke="#333333" stroke-width="2" stroke-linecap="round" stroke-linejoin="round"/>
<path d="M14.0002 21V26H9.00024" stroke="#333333" stroke-width="2" stroke-linecap="round" stroke-linejoin="round"/>
</svg>
