<?xml version="1.0" standalone="no"?>
<!DOCTYPE svg PUBLIC "-//W3C//DTD SVG 20010904//EN"
 "http://www.w3.org/TR/2001/REC-SVG-20010904/DTD/svg10.dtd">
<svg version="1.0" xmlns="http://www.w3.org/2000/svg"
 width="700.000000pt" height="700.000000pt" viewBox="0 0 700.000000 700.000000"
 preserveAspectRatio="xMidYMid meet">
<metadata>
Created by potrace 1.14, written by Peter Selinger 2001-2017
</metadata>
<g transform="translate(0.000000,700.000000) scale(0.100000,-0.100000)"
fill="#000000" stroke="none">
<path d="M651 6989 c-294 -58 -531 -274 -623 -569 l-23 -75 0 -2845 0 -2845
23 -75 c86 -271 282 -467 552 -552 l75 -23 2845 0 2845 0 75 23 c271 85 467
281 552 552 l23 75 0 2845 0 2845 -23 75 c-84 268 -274 460 -547 552 l-70 23
-2830 1 c-1579 1 -2850 -2 -2874 -7z m3091 -1071 l3 -192 45 -8 c273 -48 435
-95 628 -182 493 -222 902 -632 1122 -1126 84 -188 130 -351 178 -620 l8 -45
192 -3 192 -2 0 -240 0 -240 -192 -2 -193 -3 -8 -50 c-36 -223 -89 -410 -168
-594 -220 -512 -654 -945 -1170 -1164 -185 -79 -328 -119 -589 -165 l-45 -8
-3 -192 -2 -192 -240 0 -240 0 -2 192 -3 193 -100 17 c-496 84 -911 300 -1250
649 -155 159 -239 270 -341 446 -143 246 -220 473 -282 823 l-8 45 -192 3
-192 2 0 240 0 240 192 2 192 3 8 45 c48 273 95 435 182 628 256 568 757 1017
1343 1205 129 42 214 62 348 85 l100 17 3 193 2 192 240 0 240 0 2 -192z"/>
<path d="M3239 5225 c-191 -31 -333 -77 -514 -166 -184 -90 -302 -176 -455
-329 -153 -152 -239 -271 -329 -455 -74 -150 -116 -270 -153 -436 -20 -92 -23
-132 -23 -339 0 -208 3 -247 23 -340 52 -238 160 -488 289 -670 87 -122 291
-326 413 -413 116 -82 341 -195 471 -236 208 -65 281 -75 539 -75 262 0 336
10 546 79 516 169 940 593 1109 1109 69 210 79 284 79 546 0 258 -10 331 -75
539 -41 130 -154 355 -236 471 -87 122 -291 326 -413 413 -181 129 -431 236
-666 287 -129 28 -473 37 -605 15z m386 -806 c308 -42 567 -231 709 -516 190
-380 81 -861 -254 -1127 -344 -271 -816 -271 -1160 0 -243 193 -378 516 -342
822 61 525 531 893 1047 821z"/>
</g>
</svg>
