<svg width="64" height="64" viewBox="0 0 64 64" fill="none" xmlns="http://www.w3.org/2000/svg">
<g clip-path="url(#clip0_103_22046)">
<path d="M11.1021 22.3061C8.53375 22.3918 6.10193 23.4832 4.33083 25.3452C2.55974 27.2071 1.59122 29.6905 1.63405 32.2599C1.67689 34.8293 2.72765 37.279 4.55982 39.0808C6.392 40.8827 8.85885 41.8925 11.4286 41.8925C13.9984 41.8925 16.4652 40.8827 18.2974 39.0808C20.1296 37.279 21.1803 34.8293 21.2232 32.2599C21.266 29.6905 20.2975 27.2071 18.5264 25.3452C16.7553 23.4832 14.3235 22.3918 11.7551 22.3061H11.1021ZM24.8164 22.3061C22.248 22.3918 19.8162 23.4832 18.0451 25.3452C16.274 27.2071 15.3055 29.6905 15.3483 32.2599C15.3912 34.8293 16.4419 37.279 18.2741 39.0808C20.1063 40.8827 22.5731 41.8925 25.1429 41.8925C27.7127 41.8925 30.1795 40.8827 32.0117 39.0808C33.8439 37.279 34.8946 34.8293 34.9375 32.2599C34.9803 29.6905 34.0118 27.2071 32.2407 25.3452C30.4696 23.4832 28.0378 22.3918 25.4694 22.3061H24.8164ZM38.5307 22.3061C35.9623 22.3918 33.5305 23.4832 31.7594 25.3452C29.9883 27.2071 29.0198 29.6905 29.0626 32.2599C29.1055 34.8293 30.1562 37.279 31.9884 39.0808C33.8206 40.8827 36.2874 41.8925 38.8572 41.8925C41.4269 41.8925 43.8938 40.8827 45.726 39.0808C47.5581 37.279 48.6089 34.8293 48.6517 32.2599C48.6946 29.6905 47.726 27.2071 45.955 25.3452C44.1839 23.4832 41.752 22.3918 39.1837 22.3061H38.5307ZM52.2449 22.3061C49.6766 22.3918 47.2448 23.4832 45.4737 25.3452C43.7026 27.2071 42.7341 29.6905 42.7769 32.2599C42.8197 34.8293 43.8705 37.279 45.7027 39.0808C47.5349 40.8827 50.0017 41.8925 52.5715 41.8925C55.1412 41.8925 57.6081 40.8827 59.4403 39.0808C61.2724 37.279 62.3232 34.8293 62.366 32.2599C62.4089 29.6905 61.4403 27.2071 59.6692 25.3452C57.8981 23.4832 55.4663 22.3918 52.898 22.3061H52.2449Z" stroke="black" stroke-width="2.28571"/>
</g>
<defs>
<clipPath id="clip0_103_22046">
<rect width="64" height="22.2041" fill="white" transform="translate(0 21)"/>
</clipPath>
</defs>
</svg>
