<svg width="56" height="56" viewBox="0 0 56 56" fill="none" xmlns="http://www.w3.org/2000/svg">
<g clip-path="url(#clip0_1305_303)">
<path d="M28.002 0.0470352C12.5582 0.0470352 0.0373535 12.5666 0.0373535 28.0111C0.0373535 43.4553 12.5582 55.9751 28.002 55.9751C43.447 55.9751 55.9666 43.4553 55.9666 28.0111C55.9666 12.5666 43.4471 0.0470352 28.002 0.0470352V0.0470352ZM28.002 54.5768C13.3295 54.5768 1.4368 42.6831 1.4368 28.0111C1.4368 13.3392 13.3295 1.44488 28.002 1.44488C42.6744 1.44488 54.5682 13.3392 54.5682 28.0111C54.5682 42.6831 42.6744 54.5768 28.002 54.5768V54.5768Z" fill="url(#paint0_linear_1305_303)"/>
<path d="M54.7687 28.0112C54.7687 42.7927 42.7838 54.7772 28.0022 54.7772C13.2205 54.7772 1.23682 42.7927 1.23682 28.0112C1.23682 13.2289 13.2205 1.24525 28.0022 1.24525C42.7838 1.24525 54.7687 13.2289 54.7687 28.0112Z" fill="#333333"/>
<path d="M54.5684 28.0111C54.5684 42.6831 42.6746 54.5769 28.0023 54.5769C13.3298 54.5769 1.43701 42.6831 1.43701 28.0111C1.43701 13.3393 13.3298 1.44494 28.0023 1.44494C42.6746 1.44494 54.5684 13.3393 54.5684 28.0111V28.0111Z" fill="url(#paint1_radial_1305_303)"/>
<path d="M45.8126 28.0108C45.8126 37.847 37.8385 45.8207 28.0021 45.8207C18.1655 45.8207 10.1914 37.847 10.1914 28.0108C10.1914 18.1742 18.1655 10.2003 28.0021 10.2003C37.8385 10.2003 45.8126 18.1743 45.8126 28.0108V28.0108Z" fill="url(#paint2_linear_1305_303)"/>
<path d="M28.7156 9.71875L30.5658 4.81519V9.71875H31.9709V2.69601H29.8592L27.9385 7.72421H27.9567L26.036 2.69601H23.9243V9.71875H25.3294V4.81519L27.1796 9.71875H28.7156Z" fill="black"/>
<path d="M47.9997 12.8675L45.5988 16.368L49.3698 14.5134L50.3925 15.74L44.4577 18.7199L43.2585 17.2681L45.5591 13.7994L45.5454 13.7823L41.7188 15.4202L40.5059 13.9781L44.5077 8.67911L45.5307 9.90631L43.0249 13.2806L46.9028 11.551L47.9997 12.8675Z" fill="black"/>
<path d="M15.5643 11.5267C14.9988 10.9777 14.126 10.8122 13.3056 11.3208C13.4627 10.9145 13.3989 10.501 13.3159 10.2717C12.962 9.62825 12.838 9.54687 12.549 9.30279C11.6058 8.5125 10.6135 9.18731 9.90463 10.0321L6.47754 14.1164L11.8652 18.6364L15.479 14.3304C16.305 13.3462 16.4325 12.3705 15.5643 11.5267ZM8.59489 13.4964L10.6534 11.0432C10.8923 10.7593 11.4317 10.7707 11.7776 11.062C12.1587 11.3817 12.1598 11.8345 11.9039 12.1401L9.86821 14.5649L8.59489 13.4964ZM14.274 13.9043L12.128 16.4617L10.7843 15.3323L12.9462 12.7551C13.1909 12.4638 13.7359 12.379 14.1034 12.6873C14.5175 13.0356 14.5584 13.5652 14.274 13.9043V13.9043Z" fill="#333333"/>
<path d="M28.7304 9.44738L30.5804 4.54393V9.44738H31.9857V2.42464H29.8738L27.9532 7.45267H27.9714L26.0507 2.42464H23.9388V9.44738H25.3441V4.54393L27.1943 9.44738H28.7304Z" fill="url(#paint3_radial_1305_303)"/>
<path d="M48.0134 12.3964L45.6136 15.897L49.3844 14.0418L50.4063 15.269L44.4723 18.2489L43.2731 16.7965L45.5738 13.3283L45.5603 13.3107L41.7324 14.9492L40.5208 13.5064L44.5225 8.20805L45.5454 9.43476L43.0399 12.809L46.9164 11.0801L48.0134 12.3964Z" fill="url(#paint4_radial_1305_303)"/>
<path d="M15.3129 11.3883C14.7485 10.8393 13.8746 10.6737 13.0554 11.1818C13.2112 10.7755 13.1476 10.3619 13.0646 10.1337C12.7107 9.48923 12.5878 9.40895 12.2964 9.16437C11.3532 8.37359 10.3621 9.04879 9.65438 9.89436L6.22601 13.978L11.6138 18.498L15.2275 14.1913C16.0525 13.2071 16.181 12.2321 15.3129 11.3883V11.3883ZM8.34364 13.3579L10.402 10.9053C10.6399 10.6209 11.1791 10.6322 11.5262 10.9229C11.9073 11.2432 11.9085 11.6966 11.6513 12.0009L9.61691 14.4263L8.34364 13.3579ZM14.0238 13.7657L11.8778 16.3231L10.5317 15.1937L12.6948 12.616C12.9394 12.3253 13.4833 12.2405 13.8509 12.5489C14.2672 12.8976 14.3082 13.4262 14.0238 13.7657V13.7657Z" fill="url(#paint5_radial_1305_303)"/>
<path d="M10.7847 28.0108C10.7847 18.5014 18.4936 10.7925 28.0025 10.7925C37.5124 10.7925 45.2203 18.5014 45.2203 28.0108C45.2203 37.5198 37.5124 45.2285 28.0025 45.2285C18.4935 45.2285 10.7847 37.5198 10.7847 28.0108Z" fill="url(#paint6_radial_1305_303)"/>
<path d="M11.2794 28.0111C11.2794 18.7753 18.7664 11.2876 28.0023 11.2876C37.2381 11.2876 44.7262 18.7752 44.7262 28.0111C44.7262 37.247 37.2381 44.7345 28.0023 44.7345C18.7665 44.7345 11.2794 37.247 11.2794 28.0111V28.0111Z" fill="url(#paint7_radial_1305_303)"/>
<path d="M11.2533 28.0109H28.0023V11.262C18.7516 11.262 11.2533 18.7604 11.2533 28.0109Z" fill="url(#paint8_radial_1305_303)"/>
<path d="M28.0021 28.0107V44.7599C37.2527 44.7599 44.7512 37.2602 44.7512 28.0107H28.0021Z" fill="url(#paint9_radial_1305_303)"/>
<path d="M44.8897 27.7137H28.2989V11.1229H27.7049V27.7137H11.1141V28.3077H27.7049V44.899H28.2989V28.3077H44.8897V27.7137Z" fill="url(#paint10_radial_1305_303)"/>
<path d="M28.2992 11.5928C37.1346 11.7499 44.2643 18.879 44.4224 27.7137H44.7181C44.5602 18.7151 37.2984 11.4524 28.2992 11.2953V11.5928H28.2992Z" fill="url(#paint11_linear_1305_303)"/>
<path d="M11.5537 27.7109C11.7107 18.8641 18.8506 11.7248 27.6974 11.5672V11.2702C18.6857 11.4278 11.4149 18.7002 11.2567 27.7108H11.5537V27.7109Z" fill="#C2D7E8"/>
<path d="M27.7052 44.4294C18.8699 44.2725 11.7403 37.1428 11.5832 28.3076H11.2863C11.4444 37.3066 18.7061 44.5697 27.7052 44.7266V44.4294H27.7052Z" fill="url(#paint12_linear_1305_303)"/>
<path d="M44.4225 28.3076C44.2643 37.1428 37.1346 44.2725 28.2993 44.4294V44.7266C37.2985 44.5697 44.5612 37.3067 44.7182 28.3076H44.4225Z" fill="#12404F"/>
<path d="M27.3878 11.2703V27.3872H11.2714V27.7052H27.3878H27.7052V27.3872V11.2703H27.3878Z" fill="url(#paint13_linear_1305_303)"/>
<path d="M27.3605 44.5707V28.6477H11.4047V28.3337H27.3605H27.6745V28.6477V44.5707H27.3605Z" fill="url(#paint14_linear_1305_303)"/>
<path d="M28.6394 44.5707V28.6477H44.5623V28.3337H28.6394H28.3265V28.6477V44.5707H28.6394Z" fill="url(#paint15_linear_1305_303)"/>
<path d="M28.6394 11.4125V27.3353H44.5623V27.6488H28.6394H28.3265V27.3353V11.4125H28.6394Z" fill="url(#paint16_linear_1305_303)"/>
</g>
<defs>
<linearGradient id="paint0_linear_1305_303" x1="-4.05626" y1="-2.96805" x2="55.2787" y2="54.3691" gradientUnits="userSpaceOnUse">
<stop stop-color="#DFF4FF"/>
<stop offset="0.0984" stop-color="#D6EAF5"/>
<stop offset="0.2678" stop-color="#BFD0D9"/>
<stop offset="0.4879" stop-color="#98A5AC"/>
<stop offset="0.7469" stop-color="#646B6E"/>
<stop offset="1" stop-color="#2B2B2B"/>
</linearGradient>
<radialGradient id="paint1_radial_1305_303" cx="0" cy="0" r="1" gradientUnits="userSpaceOnUse" gradientTransform="translate(-0.310985 1.89658) scale(39.7301)">
<stop stop-color="white"/>
<stop offset="0.3064" stop-color="#A8A8A8"/>
<stop offset="0.6461" stop-color="#4F4F4F"/>
<stop offset="0.8853" stop-color="#161616"/>
<stop offset="1"/>
</radialGradient>
<linearGradient id="paint2_linear_1305_303" x1="48.42" y1="47.7411" x2="10.6297" y2="11.2232" gradientUnits="userSpaceOnUse">
<stop stop-color="#DFF4FF"/>
<stop offset="0.0855" stop-color="#D6EAF5"/>
<stop offset="0.2327" stop-color="#BED0D9"/>
<stop offset="0.4239" stop-color="#96A4AC"/>
<stop offset="0.6516" stop-color="#5F686D"/>
<stop offset="0.9075" stop-color="#1A1D1E"/>
<stop offset="1"/>
</linearGradient>
<radialGradient id="paint3_radial_1305_303" cx="0" cy="0" r="1" gradientUnits="userSpaceOnUse" gradientTransform="translate(-7.4464 -2.14997) scale(95.4652 95.4656)">
<stop stop-color="white"/>
<stop offset="0.3102" stop-color="#FDFDFD"/>
<stop offset="0.4505" stop-color="#F6F6F6"/>
<stop offset="0.5567" stop-color="#E9E9E9"/>
<stop offset="0.6456" stop-color="#D7D7D7"/>
<stop offset="0.7238" stop-color="#BFBFBF"/>
<stop offset="0.7944" stop-color="#A2A2A2"/>
<stop offset="0.8593" stop-color="#808080"/>
<stop offset="0.9199" stop-color="#575757"/>
<stop offset="0.9746" stop-color="#2B2B2B"/>
<stop offset="1" stop-color="#141414"/>
</radialGradient>
<radialGradient id="paint4_radial_1305_303" cx="0" cy="0" r="1" gradientUnits="userSpaceOnUse" gradientTransform="translate(-7.45069 -2.15009) scale(95.4737 95.4737)">
<stop stop-color="white"/>
<stop offset="0.3102" stop-color="#FDFDFD"/>
<stop offset="0.4505" stop-color="#F6F6F6"/>
<stop offset="0.5567" stop-color="#E9E9E9"/>
<stop offset="0.6456" stop-color="#D7D7D7"/>
<stop offset="0.7238" stop-color="#BFBFBF"/>
<stop offset="0.7944" stop-color="#A2A2A2"/>
<stop offset="0.8593" stop-color="#808080"/>
<stop offset="0.9199" stop-color="#575757"/>
<stop offset="0.9746" stop-color="#2B2B2B"/>
<stop offset="1" stop-color="#141414"/>
</radialGradient>
<radialGradient id="paint5_radial_1305_303" cx="0" cy="0" r="1" gradientUnits="userSpaceOnUse" gradientTransform="translate(-7.45601 -2.17762) scale(95.547 95.5467)">
<stop stop-color="white"/>
<stop offset="0.3102" stop-color="#FDFDFD"/>
<stop offset="0.4505" stop-color="#F6F6F6"/>
<stop offset="0.5567" stop-color="#E9E9E9"/>
<stop offset="0.6456" stop-color="#D7D7D7"/>
<stop offset="0.7238" stop-color="#BFBFBF"/>
<stop offset="0.7944" stop-color="#A2A2A2"/>
<stop offset="0.8593" stop-color="#808080"/>
<stop offset="0.9199" stop-color="#575757"/>
<stop offset="0.9746" stop-color="#2B2B2B"/>
<stop offset="1" stop-color="#141414"/>
</radialGradient>
<radialGradient id="paint6_radial_1305_303" cx="0" cy="0" r="1" gradientUnits="userSpaceOnUse" gradientTransform="translate(9.65172 11.0852) scale(25.75)">
<stop stop-color="#E6E6E6"/>
<stop offset="0.1045" stop-color="#D6D6D6"/>
<stop offset="0.3074" stop-color="#ADADAD"/>
<stop offset="0.5884" stop-color="#6C6C6C"/>
<stop offset="0.9335" stop-color="#121212"/>
<stop offset="1"/>
</radialGradient>
<radialGradient id="paint7_radial_1305_303" cx="0" cy="0" r="1" gradientUnits="userSpaceOnUse" gradientTransform="translate(16.6944 14.5488) scale(37.4478)">
<stop stop-color="white"/>
<stop offset="0.3435" stop-color="#FDFDFD"/>
<stop offset="0.4814" stop-color="#F6F6F6"/>
<stop offset="0.5824" stop-color="#EAEAEA"/>
<stop offset="0.6654" stop-color="#D8D8D8"/>
<stop offset="0.7373" stop-color="#C2C2C2"/>
<stop offset="0.8016" stop-color="#A6A6A6"/>
<stop offset="0.8602" stop-color="#848484"/>
<stop offset="0.9126" stop-color="#5F5F5F"/>
<stop offset="0.9494" stop-color="#404040"/>
<stop offset="0.9566" stop-color="#404040"/>
<stop offset="1"/>
</radialGradient>
<radialGradient id="paint8_radial_1305_303" cx="0" cy="0" r="1" gradientUnits="userSpaceOnUse" gradientTransform="translate(5.69932 0.353435) scale(66.3205)">
<stop offset="0.1685" stop-color="white"/>
<stop offset="0.1957" stop-color="#E0EFF7"/>
<stop offset="0.2406" stop-color="#B2D9EC"/>
<stop offset="0.2872" stop-color="#8BC5E2"/>
<stop offset="0.335" stop-color="#6BB5DA"/>
<stop offset="0.3844" stop-color="#52A9D4"/>
<stop offset="0.4359" stop-color="#41A0CF"/>
<stop offset="0.4911" stop-color="#369BCD"/>
<stop offset="0.5562" stop-color="#3399CC"/>
<stop offset="0.606" stop-color="#3396C8"/>
<stop offset="0.6553" stop-color="#328EBC"/>
<stop offset="0.7045" stop-color="#3180A8"/>
<stop offset="0.7536" stop-color="#2F6D8C"/>
<stop offset="0.8027" stop-color="#2D5468"/>
<stop offset="0.8512" stop-color="#2A373D"/>
<stop offset="0.8708" stop-color="#292929"/>
</radialGradient>
<radialGradient id="paint9_radial_1305_303" cx="0" cy="0" r="1" gradientUnits="userSpaceOnUse" gradientTransform="translate(5.69914 0.352764) scale(66.3193 66.3193)">
<stop offset="0.1685" stop-color="white"/>
<stop offset="0.1957" stop-color="#E0EFF7"/>
<stop offset="0.2406" stop-color="#B2D9EC"/>
<stop offset="0.2872" stop-color="#8BC5E2"/>
<stop offset="0.335" stop-color="#6BB5DA"/>
<stop offset="0.3844" stop-color="#52A9D4"/>
<stop offset="0.4359" stop-color="#41A0CF"/>
<stop offset="0.4911" stop-color="#369BCD"/>
<stop offset="0.5562" stop-color="#3399CC"/>
<stop offset="0.606" stop-color="#3396C8"/>
<stop offset="0.6553" stop-color="#328EBC"/>
<stop offset="0.7045" stop-color="#3180A8"/>
<stop offset="0.7536" stop-color="#2F6D8C"/>
<stop offset="0.8027" stop-color="#2D5468"/>
<stop offset="0.8512" stop-color="#2A373D"/>
<stop offset="0.8708" stop-color="#292929"/>
</radialGradient>
<radialGradient id="paint10_radial_1305_303" cx="0" cy="0" r="1" gradientUnits="userSpaceOnUse" gradientTransform="translate(10.0029 11.41) scale(25.2564 25.2564)">
<stop stop-color="#E6E6E6"/>
<stop offset="0.1045" stop-color="#D6D6D6"/>
<stop offset="0.3074" stop-color="#ADADAD"/>
<stop offset="0.5884" stop-color="#6C6C6C"/>
<stop offset="0.9335" stop-color="#121212"/>
<stop offset="1"/>
</radialGradient>
<linearGradient id="paint11_linear_1305_303" x1="24.6906" y1="5.10384" x2="49.3206" y2="28.9045" gradientUnits="userSpaceOnUse">
<stop stop-color="#F0F4FF"/>
<stop offset="0.1086" stop-color="#EBEFF9"/>
<stop offset="0.2475" stop-color="#DCE0EA"/>
<stop offset="0.4028" stop-color="#C4C7CF"/>
<stop offset="0.5701" stop-color="#A2A4AB"/>
<stop offset="0.7469" stop-color="#76777C"/>
<stop offset="0.9291" stop-color="#414243"/>
<stop offset="1" stop-color="#2B2B2B"/>
</linearGradient>
<linearGradient id="paint12_linear_1305_303" x1="4.69894" y1="25.1984" x2="29.3294" y2="48.9995" gradientUnits="userSpaceOnUse">
<stop stop-color="#F0F4FF"/>
<stop offset="0.1086" stop-color="#EBEFF9"/>
<stop offset="0.2475" stop-color="#DCE0EA"/>
<stop offset="0.4028" stop-color="#C4C7CF"/>
<stop offset="0.5701" stop-color="#A2A4AB"/>
<stop offset="0.7469" stop-color="#76777C"/>
<stop offset="0.9291" stop-color="#414243"/>
<stop offset="1" stop-color="#2B2B2B"/>
</linearGradient>
<linearGradient id="paint13_linear_1305_303" x1="16.6146" y1="16.7108" x2="29.3864" y2="29.0526" gradientUnits="userSpaceOnUse">
<stop stop-color="#C2D7E8"/>
<stop offset="0.1337" stop-color="#BACFE1"/>
<stop offset="0.3425" stop-color="#A4BACD"/>
<stop offset="0.6001" stop-color="#8098AC"/>
<stop offset="0.894" stop-color="#4E697F"/>
<stop offset="1" stop-color="#3A566D"/>
</linearGradient>
<linearGradient id="paint14_linear_1305_303" x1="10.2182" y1="19.7354" x2="34.6007" y2="43.2969" gradientUnits="userSpaceOnUse">
<stop stop-color="#F0F4FF"/>
<stop offset="0.0973" stop-color="#E8EBF6"/>
<stop offset="0.2568" stop-color="#D1D4DD"/>
<stop offset="0.4587" stop-color="#ABAEB5"/>
<stop offset="0.6951" stop-color="#78797D"/>
<stop offset="0.9578" stop-color="#363637"/>
<stop offset="1" stop-color="#2B2B2B"/>
</linearGradient>
<linearGradient id="paint15_linear_1305_303" x1="28.1896" y1="28.4754" x2="36.7424" y2="36.7401" gradientUnits="userSpaceOnUse">
<stop stop-color="#D9DEF0"/>
<stop offset="0.1229" stop-color="#D4DAEC"/>
<stop offset="0.2629" stop-color="#C7CFE2"/>
<stop offset="0.4114" stop-color="#B0BCD1"/>
<stop offset="0.5657" stop-color="#90A1B8"/>
<stop offset="0.7246" stop-color="#677F99"/>
<stop offset="0.8849" stop-color="#355674"/>
<stop offset="0.9719" stop-color="#173D5D"/>
</linearGradient>
<linearGradient id="paint16_linear_1305_303" x1="19.4404" y1="10.7926" x2="43.7966" y2="34.3286" gradientUnits="userSpaceOnUse">
<stop stop-color="#F0F4FF"/>
<stop offset="0.1086" stop-color="#EBEFF9"/>
<stop offset="0.2475" stop-color="#DCE0EA"/>
<stop offset="0.4028" stop-color="#C4C7CF"/>
<stop offset="0.5701" stop-color="#A2A4AB"/>
<stop offset="0.7469" stop-color="#76777C"/>
<stop offset="0.9291" stop-color="#414243"/>
<stop offset="1" stop-color="#2B2B2B"/>
</linearGradient>
<clipPath id="clip0_1305_303">
<rect width="56" height="56" fill="white"/>
</clipPath>
</defs>
</svg>
