<svg width="64" height="64" viewBox="0 0 64 64" fill="none" xmlns="http://www.w3.org/2000/svg">
<path d="M31.6025 47.3167C47.8477 47.3167 61.019 40.5727 61.019 32.2576C61.019 23.9363 47.8477 17.1922 31.6025 17.1922C15.3636 17.1922 2.19226 23.9363 2.19226 32.2576C2.19226 40.5727 15.3636 47.3167 31.6025 47.3167ZM37.1418 39.9269C36.6512 41.0633 35.8067 43.4913 33.8691 44.46C33.2792 44.7521 32.5526 44.8887 31.9068 44.9135C31.7576 44.9135 31.6522 44.9135 31.6085 44.9135C26.181 44.9135 21.1261 44.1557 16.8971 42.8703C16.8656 42.8568 16.7669 42.8207 16.7358 42.8081C16.3447 42.6779 16.1458 42.4976 16.1458 42.2741C16.1458 42.0817 16.2513 41.9326 16.3879 41.7959C16.4501 41.7401 16.537 41.6657 16.6551 41.5598C17.6363 40.7463 20.5736 38.6163 26.1128 36.4925C28.0565 35.7535 30.4908 34.8283 33.0369 34.288C34.5272 33.9775 40.0665 33.1267 37.1416 39.9266L37.1418 39.9269ZM52.0021 24.7434C52.1075 24.5631 52.2445 24.408 52.4988 24.3954C52.6353 24.3819 52.8219 24.4134 53.1074 24.5941C56.5601 26.7179 58.6094 29.3758 58.6094 32.251C58.6094 37.4425 51.9337 41.9074 42.3829 43.8573C41.7743 43.9817 41.3644 43.9754 41.2278 43.8213C41.1287 43.728 41.1039 43.5604 41.2278 43.3556C41.2837 43.2502 41.3521 43.1568 41.4824 43.0013C46.68 36.8722 50.642 27.8304 51.766 25.2222C51.853 25.042 51.9337 24.8622 52.0022 24.7442L52.0021 24.7434ZM26.1564 24.5518C26.647 23.4154 27.4916 20.9872 29.4291 20.0247C30.019 19.7326 30.7456 19.5899 31.3914 19.5714C31.5406 19.5669 31.646 19.5714 31.6834 19.5714C37.1171 19.5714 42.1658 20.3228 46.4009 21.6144C46.4325 21.6279 46.5312 21.664 46.5623 21.6766C46.9534 21.8068 47.1522 21.987 47.1522 22.2106C47.1522 22.403 47.0467 22.5459 46.9102 22.6826C46.848 22.7448 46.7611 22.8191 46.643 22.9187C45.668 23.7384 42.7245 25.8622 37.1852 27.986C35.2353 28.7312 32.8072 29.6502 30.2674 30.1905C28.7708 30.5073 23.2315 31.3518 26.1564 24.5519V24.5518ZM20.822 20.6458C21.4368 20.5278 21.8405 20.5278 21.9895 20.6819C22.0765 20.781 22.1013 20.9428 21.985 21.1477C21.9228 21.2531 21.8548 21.3528 21.7305 21.4956C16.5328 27.631 12.5709 36.6664 11.4406 39.2808C11.36 39.461 11.273 39.6408 11.2045 39.759C11.1049 39.9392 10.9625 40.0943 10.7139 40.1069C10.5773 40.1204 10.3849 40.0799 10.0991 39.9082C6.64636 37.7844 4.59713 35.1265 4.59713 32.2513C4.59713 27.0598 11.2728 22.5949 20.8236 20.645" fill="#002E6B"/>
</svg>
