<svg width="64" height="64" viewBox="0 0 64 64" fill="none" xmlns="http://www.w3.org/2000/svg">
<g clip-path="url(#clip0_103_22054)">
<path d="M30.2347 48.0756C28.1123 48.0196 25.7718 47.8329 23.7001 47.5541C14.8796 46.3674 7.48827 43.3428 3.37354 39.2363C1.62865 37.4949 0.522934 35.5815 0.150055 33.6584C0.0286198 33.0321 0 32.7253 0 32.0496C0 31.3739 0.0286198 31.067 0.150055 30.4407C0.395167 29.1766 0.977305 27.8731 1.83629 26.6651C3.77889 23.9331 7.18757 21.5009 11.6601 19.6555C19.1144 16.5797 28.875 15.3613 38.3796 16.3202C49.5371 17.4458 58.7157 21.5174 62.3579 26.9568C64.023 29.4435 64.4309 32.1444 63.54 34.7842C63.0255 36.3085 62.026 37.8319 60.6188 39.2363C56.7202 43.1272 49.859 46.0613 41.6236 47.3593C37.9404 47.9398 34.1433 48.1787 30.2347 48.0756V48.0756ZM35.1007 46.0226C39.5666 45.7461 43.3378 45.0897 47.0128 43.949C49.9287 43.044 52.6467 41.7912 54.7334 40.3902C55.785 39.6842 56.5145 39.0883 57.3395 38.2615C58.3192 37.2796 58.9515 36.418 59.4662 35.3633C60.0421 34.1835 60.265 33.2586 60.265 32.0496C60.265 30.8335 60.0275 29.8593 59.4442 28.6835C58.9399 27.6667 58.2965 26.7968 57.3395 25.8377C55.9341 24.4291 54.2645 23.2675 52.058 22.1629C47.9273 20.0952 42.7591 18.7424 37.0017 18.2218C33.8128 17.9334 30.1899 17.9333 26.9906 18.2214C18.8962 18.9503 11.9478 21.353 7.64866 24.9099C7.10333 25.361 6.13123 26.3425 5.72377 26.8533C4.26686 28.6796 3.57907 30.6502 3.73579 32.5492C3.90653 34.618 4.83817 36.4422 6.65303 38.2615C8.02777 39.6396 9.6623 40.785 11.788 41.8598C16.6285 44.3074 22.5764 45.7101 29.5719 46.0539C30.362 46.0927 34.3307 46.0703 35.1007 46.0226V46.0226ZM12.41 40.162C12.3717 40.146 12.3089 40.0981 12.2705 40.0554C12.2013 39.9784 12.2007 39.9224 12.1918 32.5098L12.1828 25.0416L12.0904 24.9452C12.0031 24.854 11.9789 24.8483 11.6459 24.8389L11.2938 24.829V24.3581V23.8872L13.8285 23.8783L16.3632 23.8693L16.4708 23.9598L16.5784 24.0504V26.7429C16.5784 29.7011 16.5705 29.5904 16.7832 29.5904C16.9152 29.5904 16.9609 29.5353 17.6962 28.4916C19.6441 25.7266 20.7157 24.2228 20.8123 24.1184C21.0505 23.8611 20.9425 23.8714 23.4081 23.8705L25.616 23.8698L25.7002 23.954C25.8037 24.0574 25.8426 24.1987 25.7956 24.2996C25.7657 24.3637 24.8105 25.7821 21.4746 30.7158C21.1104 31.2545 21.0087 31.4299 21.0095 31.5181C21.0105 31.6096 21.2474 31.9651 22.2588 33.3925C26.7285 39.7007 26.7429 39.7213 26.7566 39.8488C26.767 39.9446 26.7497 39.9978 26.6829 40.0755L26.5956 40.177L24.2898 40.1865C22.0163 40.1958 21.9816 40.1949 21.8142 40.1229C21.7209 40.0827 21.6056 40.0079 21.558 39.9565C21.5104 39.9051 20.4594 38.4425 19.2223 36.7063C17.9853 34.97 16.9481 33.5287 16.9174 33.5034C16.8314 33.4321 16.6741 33.4661 16.6233 33.5669C16.589 33.6351 16.5793 34.3458 16.5789 36.8177L16.5784 39.9813L16.4942 40.0792L16.41 40.177L14.4449 40.184C13.3641 40.1878 12.4483 40.1779 12.41 40.1619L12.41 40.162ZM29.9199 40.1462C29.8619 40.1207 29.7951 40.0576 29.7716 40.006C29.7383 39.9329 29.7289 38.2733 29.7289 32.4813V25.0504L29.6269 24.9484C29.5284 24.8499 29.5136 24.8465 29.1909 24.8465H28.8568V24.3581V23.8698H31.4375H34.0182L34.1322 23.9716L34.2461 24.0734V32.0285V39.9836L34.1494 40.0803L34.0527 40.1771L32.039 40.1849C30.4261 40.1911 30.0044 40.1833 29.9199 40.1462V40.1462ZM37.4203 40.1524C37.312 40.0902 37.2657 40.0126 37.2645 39.8909C37.2639 39.8295 37.759 38.2991 38.3648 36.49C38.9707 34.6809 39.9342 31.8037 40.506 30.0962C41.0778 28.3887 41.6809 26.5928 41.8462 26.1052C42.0115 25.6176 42.1468 25.1759 42.1468 25.1236C42.1468 25.0714 42.1169 24.9916 42.0802 24.9463C42.0206 24.8725 41.978 24.8621 41.6704 24.8465L41.3271 24.829L41.3174 24.3494L41.3077 23.8698L44.4044 23.8702C46.4373 23.8702 47.546 23.8828 47.6316 23.9066C47.7033 23.9265 47.7793 23.9752 47.8005 24.0147C47.8441 24.0962 48.1913 25.1228 49.8281 30.0092C52.4909 37.9584 53.0997 39.7932 53.0997 39.8681C53.0997 39.991 53.0306 40.1134 52.9373 40.156C52.8782 40.1829 52.2591 40.1947 50.9092 40.1946C49.1283 40.1946 48.9562 40.1895 48.8466 40.1336C48.7808 40.1 48.6981 40.0332 48.6629 39.985C48.6276 39.9367 48.357 39.1441 48.0616 38.2234C45.2457 29.4478 45.3237 29.6873 45.2604 29.6168C45.1905 29.5388 45.1372 29.5396 45.0649 29.6195C45.0074 29.683 44.899 30.0167 43.3681 34.8403C42.9237 36.2408 42.4445 37.7477 42.3033 38.189C42.1621 38.6302 41.9812 39.1992 41.9012 39.4534C41.7439 39.9532 41.6744 40.0724 41.4968 40.1466C41.3435 40.2106 37.5313 40.2162 37.4203 40.1525L37.4203 40.1524Z" fill="#C41230"/>
</g>
<defs>
<clipPath id="clip0_103_22054">
<rect width="64" height="32.0989" fill="white" transform="translate(0 16)"/>
</clipPath>
</defs>
</svg>
