<svg width="64" height="46" viewBox="0 0 64 46" fill="none" xmlns="http://www.w3.org/2000/svg">
<path d="M44.7576 29.2605C44.1916 27.5735 41.91 23.3385 40.1164 20.9555C39.7286 20.436 39.8735 20.1694 40.081 20.0014C40.2876 19.8333 40.9554 19.2569 41.745 18.3536C42.543 17.4419 42.735 16.4107 42.1706 14.9194C41.6093 13.442 39.7548 9.93067 39.3654 8.76692C38.9189 7.42591 38.8742 6.82861 39.1433 6.09799C39.4602 5.23713 39.9229 5.20091 40.2714 5.2063C40.4588 5.21015 40.5991 5.40745 40.5999 5.49762C40.6092 5.8768 40.6284 6.34539 40.9986 7.32572C41.59 8.88638 43.1067 9.90601 43.5856 10.1118C43.9187 10.2559 43.9788 9.99772 43.9495 9.87287C43.9187 9.74956 43.4252 7.81511 43.0543 6.36157C42.6672 4.83791 42.4721 4.50728 42.1274 4.18436C41.5784 3.66337 40.7433 3.38437 40.037 3.41135C38.4617 3.473 37.7654 4.99436 37.679 5.1354C37.6042 5.26179 37.5749 5.35042 37.4145 5.23944C36.9642 4.925 35.6487 3.82675 35.5277 3.13929C35.4567 2.73236 35.3858 2.6761 34.9794 2.51811C33.3987 1.90155 32.0292 1.35975 30.5133 1.09232C29.9057 0.985194 29.8733 0.932787 29.1639 1.06458C27.9594 1.28962 27.2207 1.56707 26.3162 2.04105C25.8174 2.3054 25.7595 2.48266 25.6624 2.60751C25.5876 2.70616 25.5066 2.82407 25.3262 2.88265C25.0254 2.98053 23.9081 3.3967 23.5249 3.61943C23.2859 3.75816 23.1556 3.90459 23.2782 4.17434C23.4925 4.65063 24.1356 5.64328 24.4163 5.89299C24.5867 6.04328 25.0139 6.14732 25.1157 6.1689C25.2167 6.19356 25.2884 6.22285 25.3262 6.14732C25.3678 6.06409 25.3832 5.94308 25.5837 5.80282C25.8837 5.59242 26.4412 5.44676 26.738 5.42055C26.9655 5.40129 27.1043 5.39435 27.2215 5.47836C27.3379 5.5639 27.6071 5.8506 27.7004 6.13884C27.7937 6.42708 27.7351 6.53498 27.5739 6.6028C27.412 6.67062 26.9277 6.78006 26.3664 6.82553C25.8073 6.871 25.6477 6.71609 25.6084 6.68141C25.5791 6.64981 25.5051 6.60203 25.448 6.67756C25.3539 6.80858 25.2128 6.89335 24.9938 7.00202C24.8697 7.06214 24.8034 7.19393 24.9213 7.3997C25.2776 8.01549 25.7472 8.70757 26.1828 8.83936C26.5298 8.94726 26.7157 8.83397 27.1058 8.55575C27.4544 8.30373 27.6811 8.30527 27.7767 8.3754C27.8816 8.45401 28.0921 8.63205 28.0381 8.81008C27.9456 9.11913 27.3217 9.85668 27.2022 10.0085C27.0897 10.1519 26.9832 10.2289 26.782 10.1326C26.4867 9.99155 22.0105 7.67022 21.4121 7.43747C20.7606 7.18699 20.3326 7.12611 19.6911 7.09682C19.1721 7.0737 18.4797 7.12379 18.0463 7.2024C17.7302 7.26098 17.5505 7.41049 17.256 7.68255C16.8504 8.05711 16.4224 8.53571 16.3823 8.93493C16.353 9.2224 16.673 9.80813 16.7077 9.84898C16.7424 9.89291 16.8018 9.97383 16.9753 9.95456C17.1519 9.93529 17.5945 9.70486 18.1234 9.79657C18.6023 9.8798 18.6509 10.2559 18.6755 10.5441C18.6794 10.5935 18.7395 10.7052 18.8752 10.7029C19.0657 10.7006 19.3641 10.7068 19.7088 10.8717C20.1337 11.0728 20.9741 11.7241 21.1037 11.8682C21.2086 11.9861 21.2016 12.0925 21.0019 12.1117C19.9339 12.2065 18.3093 12.5233 17.5582 12.7699C17.0246 12.9441 16.3954 13.1838 16.1733 13.5699C15.9212 14.0077 15.602 14.7098 15.5117 15.2115C15.42 15.7101 15.9544 16.329 16.097 16.4669C16.1934 16.5602 16.2589 16.6188 16.4293 16.5255C16.69 16.376 17.3215 15.9868 17.926 15.9506C18.2931 15.9298 18.4396 16.275 18.5275 16.4014C18.6162 16.5263 18.701 16.44 19.0295 16.3513C19.6116 16.1949 22.8595 16.2542 24.0061 16.3082C24.5304 16.3305 25.2599 16.4084 25.7965 16.7043C26.3301 16.998 27.2963 17.9097 27.2963 17.9097C27.2963 17.9097 26.0132 20.0599 25.3223 21.3347C24.6823 22.5123 24.2158 23.3971 23.9852 23.9096C23.7732 24.3781 23.6005 25.0425 23.6383 25.5658C23.6961 26.3319 23.7161 26.7249 23.7069 27.0717C23.6969 27.3769 23.4123 27.4101 23.009 27.5095C22.4523 27.6513 21.3427 27.753 20.4436 27.9742C19.6263 28.1777 19.3217 28.3704 19.1736 29.0016C19.0595 29.4933 18.8907 30.7148 18.8706 31.2813C18.8614 31.5094 18.8575 31.6212 19.1474 31.561C19.314 31.5287 19.7951 31.4593 20.4074 31.4146C21.1661 31.3568 21.9874 31.3684 22.622 31.3668C23.7902 31.3599 27.2385 31.561 27.4706 31.5842C27.7651 31.6134 27.8245 31.5772 27.8052 31.3714C27.7767 31.1002 27.7273 30.2339 27.715 29.7175C27.7004 29.1989 27.6225 28.674 28.0898 28.17C28.5547 27.6644 32.0693 23.7477 32.2637 23.5466C32.4341 23.3762 32.5482 23.1944 32.8088 23.4333C33.0733 23.676 35.9664 25.7608 36.5548 26.187C37.1423 26.6132 37.689 26.7581 38.3583 26.7673C38.8357 26.7758 38.969 27.6081 38.5627 27.6867C38.1455 27.7661 37.5109 27.8971 37.0668 27.9981C36.382 28.1584 36.1723 28.3811 35.9664 28.8428C35.7898 29.232 35.5963 31.1456 35.5901 31.3113C35.5847 31.43 35.5778 31.6027 35.7659 31.5634C36.6103 31.3923 37.9489 31.3437 39.3808 31.3884C41.024 31.4393 42.6202 31.5749 42.8438 31.588C43.0859 31.605 43.109 31.5687 43.2309 31.3799C43.4383 31.0555 44.0567 30.341 44.5949 29.9002C44.864 29.6813 44.8694 29.5904 44.7576 29.2605ZM38.4447 17.69C38.0276 17.8265 37.7561 17.7085 37.5533 17.5151C37.349 17.3209 35.6911 15.3263 35.1576 14.7167C34.8892 14.4092 34.688 13.7071 35.4968 13.4081C36.16 13.1668 37.349 12.7853 37.679 12.6112C38.0098 12.437 38.1833 12.2582 38.2149 11.9198C38.2411 11.58 38.2442 11.1985 38.2458 11.0713C38.2481 10.9434 38.4139 10.8409 38.4987 10.9911C38.5573 11.0975 38.8549 11.6778 39.2181 12.3491C39.761 13.3572 40.4457 14.6173 40.6685 15.1591C40.879 15.6762 40.7757 16.0708 40.4549 16.4685C40.02 17.0064 38.7501 17.5906 38.4447 17.69Z" fill="#231F20"/>
<path d="M40.14 3.72214C38.8461 3.71597 37.5352 5.21497 37.7851 7.44999C37.94 8.81875 38.149 9.44225 38.5546 10.327C38.7567 10.7632 40.965 14.9674 41.0676 15.4121C41.2049 16.0487 41.083 16.4463 40.5941 16.891C40.0536 17.3797 39.1599 17.9346 38.5569 18.1419C38.4135 18.1904 38.2824 18.2151 38.1637 18.2151C38.0272 18.2151 37.6856 18.1681 37.0394 17.3727L39.894 21.1792C39.5293 20.6921 39.3411 20.3245 39.4074 20.0023C39.473 19.684 39.9935 19.3372 40.5903 18.8663C41.1902 18.4016 41.8534 17.8136 42.1572 17.019C42.2458 16.7924 42.2844 16.5581 42.2844 16.3122C42.2844 15.5531 41.9166 14.6938 41.4732 13.7612C40.9026 12.5528 39.2848 9.91469 38.7929 8.06578C38.6734 7.61184 38.6186 7.20414 38.6186 6.84114C38.6186 5.793 39.0651 5.12866 39.611 4.90207C39.8724 4.79726 40.1076 4.76104 40.3019 4.76104C40.6026 4.76104 40.8116 4.84504 40.8964 4.88897C41.0491 4.97606 41.0722 5.15871 41.0722 5.30283V5.33443C41.0707 5.3668 41.0676 5.44464 41.0676 5.56024C41.0676 5.99106 41.1254 6.93902 41.6274 7.85923C42.2628 9.02684 43.3277 9.67885 43.7472 9.85457C43.7834 9.86998 42.7663 6.10513 42.5844 5.39532C42.3731 4.56759 41.7893 3.73832 40.1554 3.72214C40.1539 3.72137 40.1516 3.72137 40.1492 3.72137C40.1469 3.72137 40.1438 3.72137 40.14 3.72214Z" fill="url(#paint0_linear_1305_327)"/>
<path d="M22.3772 12.0871C22.6263 12.3368 22.193 12.323 20.8775 12.4362C19.5366 12.5534 18.1872 12.8239 17.4808 13.0883C16.965 13.2825 16.6527 13.4204 16.4461 13.8936C16.4461 13.8936 16.0165 14.8262 15.9595 15.1946C15.9309 15.3695 15.941 15.4689 16.032 15.6154C16.0821 15.694 16.2055 13.1854 19.4441 13.0204C22.3094 12.874 23.0142 12.5742 22.4544 12.0262L22.3772 12.0871Z" fill="url(#paint1_linear_1305_327)"/>
<path d="M40.2875 4.87585C40.1124 4.87585 39.9019 4.90745 39.6644 5.0061C39.2133 5.18876 38.7985 5.75522 38.7792 6.71936L38.7846 6.939C38.7846 6.939 38.8463 6.28314 38.9619 5.97486C39.2495 5.13943 39.7855 4.96602 40.154 4.96602C40.3985 4.96602 40.5111 5.0246 40.6159 5.13558C40.6969 5.22421 40.7516 5.3059 40.7617 5.43152C40.7709 5.80454 40.7848 6.23305 41.1472 7.1995C41.1696 7.25808 41.1927 7.31665 41.2174 7.37291C40.9105 6.59296 40.8727 5.86774 40.8727 5.49858C40.8719 5.37989 40.8781 5.24193 40.8781 5.24116C40.8797 4.95909 40.5696 4.87585 40.2913 4.87585C40.2897 4.87585 40.289 4.87585 40.2875 4.87585" fill="url(#paint2_linear_1305_327)"/>
<path d="M22.4898 12.1962C22.5877 12.4605 22.2007 12.3981 20.8852 12.5121C19.5443 12.6293 18.1941 12.8882 17.4878 13.1534C16.9704 13.3484 16.6589 13.4848 16.4522 13.9595C16.4522 13.9595 16.0227 14.8921 15.9641 15.2605C15.9371 15.4339 15.9803 15.5356 16.072 15.6813C16.2093 15.8978 16.2972 15.9448 16.4977 15.8292C16.6604 15.7367 17.3768 15.3306 17.8456 15.3221C18.2743 15.3121 18.4617 15.5734 18.5249 15.7961C18.5635 15.9348 18.7524 15.8631 18.7847 15.8547C18.9729 15.8076 19.1556 15.7514 19.8249 15.7021C20.6207 15.6443 23.7251 15.6712 24.864 15.6974C25.8888 15.7213 29.9247 18.8858 29.9848 18.902L30.1876 18.492C28.8166 17.3598 23.7236 13.3229 22.4914 12.1199L22.4898 12.1962V12.1962Z" fill="url(#paint3_linear_1305_327)"/>
<path d="M18.4145 7.5158C18.1616 7.5474 17.9889 7.55973 17.7228 7.8079C17.4607 8.05144 17.0049 8.38284 16.8283 8.71964C16.7605 8.84757 16.7265 8.9362 16.7443 9.05181C16.7705 9.21673 16.8476 9.38937 16.8923 9.44332C16.9402 9.50112 17.0049 9.5281 17.1391 9.4911C17.4105 9.41789 17.8932 9.35469 18.1855 9.3624C18.3937 9.36625 18.6936 9.41866 18.8308 9.57588C19.0151 9.79013 19.0028 9.96662 19.0082 10.0591C19.009 10.0992 19.0237 10.177 19.1123 10.1901C19.2951 10.2156 19.494 10.2156 19.706 10.2633C20.3013 10.3936 21.1033 10.9015 21.8512 11.5889C23.3001 12.9261 25.1013 14.9261 26.8286 16.3048C27.703 16.9992 29.1357 17.8701 29.6091 18.3441C29.6963 18.432 29.5074 18.4975 29.3639 18.4242C29.2984 18.3919 28.4841 17.7537 28.3068 17.709C28.1556 17.672 27.9984 17.709 27.8434 17.9256C26.4886 19.7961 24.9294 22.9359 24.294 24.4241C24.1452 24.7779 24.0172 25.2218 24.0365 25.6226C24.0565 26.0249 24.0989 26.8272 24.1059 27.204C24.1097 27.5724 24.0195 27.7212 23.5808 27.7913C22.7758 27.9154 20.9876 28.2368 20.5319 28.3485C20.1887 28.431 19.9011 28.5874 19.7685 28.9851C19.578 29.5616 19.4246 30.4487 19.4107 30.6644C19.4015 30.7978 19.4485 30.8903 19.6043 30.8517C20.2597 30.6868 21.2737 30.5535 22.6701 30.5812C24.0673 30.6113 26.5572 30.8571 26.8795 30.8864C26.9913 30.8957 27.1255 30.8972 27.1239 30.7685C27.1208 30.6197 27.0854 29.9462 27.0746 29.0861C27.0661 28.2267 27.8148 27.5963 28.8527 26.5212C29.8929 25.4422 32.4013 22.9706 32.4961 22.8843C32.5586 22.8218 32.6256 22.7617 32.4992 22.6384C32.3234 22.4704 31.523 21.645 31.432 21.5502C31.3865 21.4993 31.284 21.3714 31.324 21.3275C31.3611 21.282 31.4575 21.3552 31.5808 21.4569C32.0658 21.8508 37.3686 26.1189 37.738 26.2846C38.1158 26.4495 38.3456 26.4988 38.6841 26.5582C38.9385 26.6044 39.1614 26.9805 39.1976 27.2603C39.2346 27.5408 39.2177 27.9123 38.8267 28.0086C38.4373 28.1057 37.4743 28.2845 37.135 28.3778C36.7942 28.4718 36.5651 28.6244 36.4202 29.0144C36.2737 29.4074 36.0832 30.4741 36.0793 30.565C36.0755 30.8009 36.1372 30.8194 36.3184 30.7747C36.542 30.7223 36.8049 30.6475 37.8182 30.6136C39.5253 30.5527 42.1216 30.7731 42.4563 30.7993C42.5704 30.8101 42.6644 30.6937 42.7045 30.6228C43.0662 29.9986 42.9636 29.839 43.4494 29.4444C43.7015 29.2425 43.8219 29.2024 43.6638 28.8433C42.0776 25.2349 40.5709 22.7864 38.1281 19.6597C36.562 17.6543 34.7338 15.4339 34.1192 14.6972L26.7492 10.483C26.3128 10.2757 22.9045 8.53235 22.3177 8.24103C21.7294 7.95125 21.2552 7.7131 20.6537 7.57823C20.2327 7.48267 19.8148 7.44953 19.4254 7.44953C19.0552 7.44953 18.7113 7.47958 18.4145 7.5158" fill="url(#paint4_linear_1305_327)"/>
<path d="M26.6306 4.06111C25.5703 4.34627 24.2148 4.89886 24.1654 4.92584C24.1369 4.94433 24.1415 4.9713 24.1561 5.00367C24.1685 5.03219 24.3104 5.27727 24.3104 5.27727C24.3104 5.27727 24.3813 5.44374 24.5864 5.55858C24.7892 5.67341 24.9889 5.7212 25.0398 5.73353C25.093 5.74432 25.1169 5.72197 25.1354 5.69422C25.1509 5.6711 25.3506 5.28806 26.0847 5.0977C26.4818 4.99751 26.7339 4.98595 26.8565 4.98595C27.0477 4.99058 27.3438 5.0846 27.5088 5.24567C27.7772 5.51002 28.0124 5.94778 28.0525 6.15741C28.0957 6.36087 28.0617 6.61443 27.8589 6.72002C27.6553 6.82329 27.0632 6.96356 26.6907 7.00055C26.3052 7.03909 25.9304 7.01982 25.7076 6.89188C25.6729 6.87262 25.6474 6.86876 25.6135 6.89574C25.5295 6.96587 25.4786 7.0229 25.3143 7.12078C25.2765 7.14236 25.2534 7.1886 25.2889 7.2595C25.3243 7.33041 25.7893 8.10188 26.0715 8.30919C26.3514 8.51882 26.501 8.4248 26.8364 8.23906C27.1734 8.05333 27.4009 7.82597 27.7494 7.83753C28.1034 7.84678 28.4033 8.14735 28.4581 8.49648C28.5244 8.92113 28.2522 9.19781 28.0864 9.45985C27.9245 9.71649 27.5921 10.0987 27.4209 10.313C27.2035 10.5874 26.7886 10.5034 26.7886 10.5034C26.7886 10.5034 28.7518 11.5006 29.8815 12.0679C30.3287 12.2945 31.0312 12.0841 31.5077 11.1924C31.6187 10.9851 32.325 9.49144 32.5016 9.04675C32.679 8.6036 32.9296 8.11113 32.5263 7.26413C32.1215 6.42022 30.8677 4.85879 30.3688 4.25995C30.1066 3.94705 29.799 3.75514 29.1374 3.71969C29.0518 3.71507 28.9631 3.71276 28.8713 3.71276C28.2668 3.71276 27.5358 3.8168 26.6306 4.06111" fill="url(#paint5_radial_1305_327)"/>
<path d="M26.6852 7.05594C26.3074 7.09062 25.9403 7.07367 25.7221 6.95575C25.6882 6.93803 25.6636 6.93494 25.6304 6.95883C25.5471 7.02434 25.4977 7.07675 25.3366 7.16692C25.3003 7.18619 25.2764 7.22935 25.3127 7.29486C25.3466 7.36036 25.7669 8.06555 26.0522 8.26748C26.3375 8.47325 26.4894 8.38077 26.8309 8.19889C27.1733 8.017 27.4046 7.79504 27.7586 7.80583L27.8295 6.79622C27.6314 6.89255 27.05 7.02203 26.6852 7.05594" fill="url(#paint6_radial_1305_327)"/>
<path d="M24.2363 4.96083C24.2093 4.97855 24.2132 5.03328 24.2271 5.06179C24.2394 5.088 24.3743 5.31073 24.3743 5.31073C24.3743 5.31073 24.4414 5.46255 24.6357 5.5666C24.8285 5.66987 24.9889 5.72074 25.0398 5.73307C25.093 5.74386 25.1169 5.72151 25.1354 5.69376C25.1508 5.67064 25.3506 5.28761 26.0846 5.09724C26.4817 4.99705 26.7339 4.98549 26.8565 4.98549L26.5781 4.17472C25.5703 4.43444 24.2826 4.93617 24.2363 4.96083" fill="url(#paint7_radial_1305_327)"/>
<path d="M28.0934 9.54887C27.9323 9.80474 27.5984 10.1878 27.428 10.4013C27.2106 10.6756 26.8944 10.5562 26.8944 10.5562C26.8944 10.5562 28.7519 11.5003 29.8816 12.0675C30.3288 12.2941 31.0051 12.14 31.4816 11.2475C31.5926 11.0409 32.2997 9.54656 32.4748 9.10264L28.4651 8.55698C28.5314 8.98087 28.2585 9.28684 28.0934 9.54887" fill="url(#paint8_radial_1305_327)"/>
<path d="M22.0434 14.5183C21.5691 14.5453 20.4518 14.6486 20.1334 14.7202C19.8242 14.7934 19.3114 15.2104 19.2436 15.2828C19.1271 15.4046 19.1294 15.5071 19.2158 15.5418C19.2898 15.5703 19.4517 15.5456 19.5836 15.5349C19.9745 15.5009 21.0394 15.4678 22.2454 15.4663C22.8708 15.4655 23.5516 15.4724 24.0891 15.4794C24.6481 15.4871 25.0521 15.494 25.0799 15.4917C24.6149 14.9861 24.2201 14.3719 24.0636 14.3642C24.0598 14.3642 24.0559 14.3642 24.0505 14.3642C23.8285 14.3642 22.1744 14.5114 22.0434 14.5183" fill="url(#paint9_linear_1305_327)"/>
<path d="M19.2068 15.5628L19.2153 15.5412L19.2068 15.5628C19.1598 15.5451 19.1297 15.5027 19.1305 15.4534C19.1305 15.3971 19.1629 15.3339 19.2269 15.2669C19.2994 15.1906 19.8075 14.7744 20.1291 14.6973C20.4514 14.6249 21.5656 14.5224 22.0421 14.4954C22.1725 14.4885 23.8234 14.3412 24.0501 14.3405C24.0555 14.3405 24.0601 14.3405 24.0647 14.3412C24.1179 14.3451 24.1719 14.389 24.2397 14.4561C24.3068 14.5239 24.3863 14.6172 24.4742 14.7266C24.6507 14.9447 24.8651 15.2245 25.0964 15.4757L25.1296 15.5112L25.081 15.515C25.0764 15.515 25.0687 15.515 25.0556 15.515C24.8589 15.515 23.5758 15.4888 22.4161 15.4888C22.3591 15.4888 22.3028 15.4888 22.2457 15.4888C21.0397 15.4911 19.9756 15.5243 19.5862 15.5574C19.4999 15.5651 19.4004 15.5782 19.3194 15.5782C19.2762 15.5782 19.2377 15.5744 19.2068 15.5628ZM19.3194 15.5312C19.3958 15.5312 19.4945 15.5189 19.5816 15.5112C19.9749 15.4773 21.039 15.4449 22.2457 15.4426C22.302 15.4426 22.3591 15.4426 22.4161 15.4426C23.5303 15.4426 24.7587 15.4665 25.027 15.4688C24.6916 15.0973 24.3963 14.6788 24.2066 14.4892C24.1426 14.4229 24.0878 14.3875 24.0624 14.3875C24.0593 14.3875 24.0555 14.3875 24.0501 14.3875C23.8295 14.3875 22.1763 14.5347 22.0452 14.5416C21.571 14.5686 20.4529 14.6711 20.1391 14.7428C19.8407 14.8106 19.3225 15.2306 19.2608 15.2985C19.2014 15.3609 19.1768 15.4164 19.1768 15.4534C19.1775 15.4857 19.1914 15.505 19.2246 15.5196C19.2446 15.5274 19.2793 15.532 19.3194 15.5312Z" fill="#7F7D7E"/>
<path d="M26.4277 2.44025C26.0113 2.69304 25.9936 3.00286 25.7013 3.17241C25.4114 3.34196 24.7436 3.49379 24.0419 3.80747C23.654 3.9801 23.6525 4.00862 23.7451 4.22673C23.7813 4.31767 24.0334 4.77623 24.1614 4.77623C24.2879 4.78008 24.4414 4.71458 24.5964 4.65215C24.8038 4.57046 26.1871 4.03482 27.2859 3.80053C28.5096 3.53849 29.8251 3.51615 30.2924 4.01016C31.0033 4.76236 32.251 6.44787 32.6288 7.17849C33.0012 7.90218 32.9634 8.25361 32.7159 8.99502C32.4884 9.68171 31.6263 11.4636 31.3727 11.8327C31.1174 12.2027 30.809 12.4077 30.0711 12.1063C29.2799 11.7811 26.366 10.2867 25.7321 9.96687C25.3034 9.75108 23.5029 8.83934 22.1396 8.15651C21.6377 7.90372 21.2221 7.72029 20.7694 7.60623C19.767 7.35113 18.6906 7.46596 18.194 7.54766C17.9673 7.58542 17.8262 7.94919 17.8362 8.09716C17.8454 8.21816 18.0791 8.20275 18.3628 8.18733C18.5093 8.17886 18.669 8.17038 18.8194 8.18117C19.1741 8.20583 20.3885 8.33685 21.0894 8.62123C21.8297 8.92026 25.5355 10.9156 26.4708 11.4181C33.5996 15.2955 36.65 17.791 42.1594 27.0447C42.4054 27.4586 42.5242 27.9657 42.1348 28.0813C41.5703 28.2455 39.2208 28.6933 38.5098 28.926C37.9123 29.1225 37.8329 29.1695 37.7457 29.4647C37.6478 29.8023 37.4959 30.4697 37.5321 30.6046C37.5476 30.6601 37.5005 30.7318 37.6216 30.7318C38.2824 30.7318 40.6535 30.7341 42.4802 30.9067C42.7008 30.9298 42.7131 30.9244 42.8519 30.714C43.0115 30.4689 43.6438 29.746 44.0594 29.4385C44.2337 29.309 44.1164 29.0678 44.0879 28.9892C43.5659 27.6752 42.0908 24.8244 40.0713 21.8595C38.0888 18.9424 34.7284 14.9926 34.2642 14.3367C33.8101 13.6932 33.632 12.9695 34.5789 12.6712C35.1973 12.4747 36.6863 12.1664 37.2954 11.9961C37.8884 11.8335 37.9315 11.6416 37.9809 11.183C38.031 10.6875 37.8961 8.28136 37.5977 6.84786C37.5352 6.55038 37.3355 6.30221 37.0965 6.13266C36.8844 5.98546 36.0671 5.27256 35.6152 4.75696C35.0955 4.1643 34.8595 3.60555 34.7747 3.1755C34.7747 3.1755 34.76 3.08378 34.6583 2.98745C34.6205 2.94737 34.5912 2.9281 34.5272 2.89111C33.6366 2.34314 30.4882 1.48304 29.8459 1.42755C29.812 1.42447 29.7711 1.42293 29.7241 1.42293C29.1658 1.42216 27.7385 1.65337 26.4277 2.44025" fill="url(#paint10_linear_1305_327)"/>
<path d="M17.9975 8.22619C18.218 8.22619 18.7324 8.21001 19.077 8.24777C19.741 8.32099 20.5783 8.50441 21.1058 8.70787C21.8529 8.99842 25.3637 11.0901 26.2713 11.5972C29.0056 13.1463 31.0844 14.5706 33.0353 16.1412C36.0179 18.5427 38.5925 21.3273 41.8203 26.9772C41.9475 27.1961 42.0154 27.3641 42.0154 27.5691C42.0269 27.8844 41.7555 27.9984 41.6638 28.0231C41.1078 28.1903 38.8292 28.7036 38.1545 28.9364C37.5816 29.1383 37.4752 29.2654 37.3935 29.5306C37.3634 29.6415 37.2663 30.1787 37.1529 30.3221C37.0403 30.4685 36.7774 30.4986 36.4983 30.4986C36.3263 30.4986 36.2407 30.5086 36.2584 30.3174C36.2746 30.1271 36.388 29.6099 36.4528 29.3132C36.5168 29.015 36.6409 28.7915 36.9123 28.6281C37.1838 28.4624 38.1283 28.3098 38.6604 28.1795C39.1901 28.0493 39.2202 27.8027 39.2102 27.4027C39.2102 27.8266 39.0629 27.9298 38.5293 28.0493C37.988 28.1695 37.0789 28.2867 36.7797 28.4917C36.489 28.689 36.3764 28.9649 36.3224 29.183C36.1412 29.9383 36.0171 30.4909 36.0379 30.6766C36.0556 30.8415 36.1212 30.8646 36.3055 30.8438C36.489 30.823 36.947 30.7583 37.6341 30.7328C37.8376 30.7328 37.8238 30.4855 37.8215 30.2126C37.8215 30.114 37.8261 29.8196 37.8769 29.6755C37.9278 29.5329 38.0373 29.4003 38.2108 29.3471C38.5925 29.2284 40.7099 28.6574 41.7856 28.3368C42.2568 28.1965 42.4541 28.047 42.411 27.6185C42.3732 27.2416 42.0285 26.6828 41.4155 25.7241C40.7986 24.7576 40.0236 23.4382 38.9919 21.9785C37.1598 19.3859 35.3563 17.362 33.1155 15.5902C31.46 14.2823 29.7242 13.2334 28.4504 12.4881C27.1766 11.7421 21.799 8.8019 20.9647 8.54063C20.2067 8.30326 19.6045 8.22542 19.0655 8.1707C18.6984 8.1337 18.3923 8.16068 18.0669 8.16068C17.7585 8.16068 17.8672 7.91097 17.9104 7.81155C17.878 7.88246 17.6937 8.22619 17.9975 8.22619" fill="url(#paint11_linear_1305_327)"/>
<path d="M27.7971 17.9206C27.5912 18.1696 26.5363 19.8435 25.6804 21.408C25.0613 22.541 24.3195 24.1471 24.1753 24.5363C24.0434 24.8908 24.0195 25.2168 24.0319 25.6161C24.045 26.013 24.1113 26.658 24.1337 27.122C24.1568 27.5659 24.0434 27.7624 23.5808 27.8464C23.1883 27.9166 21.1033 28.2665 20.5897 28.3913C20.0746 28.5162 19.9135 28.7713 19.8133 29.1482C19.7115 29.5243 19.5642 30.2371 19.558 30.4005C19.5542 30.5593 19.5742 30.5909 19.723 30.5709C19.8711 30.5501 20.1864 30.5223 20.3144 30.5131C20.4486 30.5038 20.4217 30.4044 20.4618 30.2634C20.4995 30.137 20.5265 29.9242 20.6036 29.5967C20.6799 29.2699 20.7833 29.0156 21.2359 28.8823C21.6893 28.7482 23.7404 28.4183 24.0874 28.3235C24.4336 28.2272 24.6557 28.0784 24.6935 27.7316C24.7328 27.3879 24.6618 26.6526 24.6518 26.0553C24.6426 25.4288 24.6349 25.1498 24.9872 24.4723C25.6681 23.1729 27.7824 20.0963 29.2097 18.3152C29.2097 18.3152 29.0756 18.2158 28.9059 18.0925C28.6954 17.9384 28.4286 17.748 28.2814 17.701C28.2359 17.6871 28.1942 17.6802 28.1557 17.6802C28.023 17.6802 27.9259 17.7627 27.7971 17.9206" fill="url(#paint12_linear_1305_327)"/>
<path d="M27.5328 26.9088C27.1481 27.7543 27.0386 28.236 27.0386 28.6552C27.0386 29.0198 27.0756 29.1485 27.0756 29.1485C27.0571 28.7793 27.1943 28.4418 27.4287 28.1034C27.7441 27.6502 28.2314 27.1878 28.829 26.5674C29.8754 25.4823 32.4269 22.986 32.5187 22.8958C32.5758 22.838 32.6444 22.7571 32.5033 22.6207C32.2504 22.3787 32.1178 22.223 31.7191 21.8238C31.4762 21.5802 31.3073 21.433 31.3166 21.3483C31.3073 21.3483 28.4635 24.5443 27.5328 26.9088" fill="url(#paint13_linear_1305_327)"/>
<path d="M18.0345 8.22626L41.6137 28.0386C41.8535 27.9862 42.0015 27.812 42.0131 27.6424C42.027 27.449 41.9884 27.2725 41.8604 27.0498C38.5794 21.3204 36.1227 18.6453 33.1317 16.2299C32.6143 15.8115 32.0907 15.3945 31.5448 14.9899C30.0304 13.8678 28.3671 12.7888 26.3538 11.6443C25.7763 11.3206 24.1485 10.3619 22.8446 9.62508C22.0928 9.20042 21.4481 8.84976 21.1759 8.73723C20.6531 8.51836 19.8235 8.34032 19.1472 8.25632C18.9305 8.22934 18.703 8.22318 18.4656 8.22318C18.326 8.22318 18.1818 8.22549 18.0345 8.22626" fill="url(#paint14_linear_1305_327)"/>
<path d="M34.6776 2.67854C34.7409 2.71631 34.8003 2.75408 34.8458 2.80186C35.0038 2.9506 35.0393 3.09703 35.0439 3.12863C35.1218 3.51552 35.3362 4.03497 35.8281 4.59527C36.2514 5.08312 37.1258 5.80526 37.3086 5.9332C37.425 6.01181 37.5399 6.09119 37.6371 6.19986C37.6934 5.90699 37.7859 5.58407 37.917 5.26809C37.8954 5.302 37.8746 5.34747 37.8352 5.39756C37.7913 5.45768 37.7026 5.53475 37.5723 5.54092H37.5685H37.5585C37.4466 5.54015 37.3649 5.49236 37.2978 5.44535C36.8251 5.09314 35.5004 4.06349 35.3099 3.19029C35.1904 2.78105 35.3408 2.96756 34.9151 2.75253C34.7964 2.70552 34.6823 2.65928 34.5651 2.61612C34.6052 2.63693 34.6437 2.65774 34.6776 2.67854" fill="url(#paint15_linear_1305_327)"/>
<path d="M37.4305 12.2403C36.8074 12.4114 35.2714 12.7243 34.6792 12.9085C34.2382 13.068 34.1818 13.2083 34.168 13.4287V13.431C34.168 13.6352 34.2621 13.9535 34.4602 14.2264C34.6892 14.5539 35.8011 15.8163 37.0395 17.3731C37.1829 17.5465 37.2408 17.6128 37.3603 17.7338C37.3148 17.6745 35.5652 15.4618 35.0285 14.8506C34.8758 14.671 34.7008 14.4306 34.6985 14.1146C34.6969 13.8002 34.9383 13.3516 35.4364 13.1797C36.1019 12.937 37.3125 12.5447 37.5877 12.3952C37.8553 12.241 37.9355 12.174 37.9748 11.9913C37.8368 12.1031 37.6579 12.1763 37.4305 12.2403Z" fill="url(#paint16_linear_1305_327)"/>
<path d="M40.1486 3.68895C38.9665 3.7167 38.17 4.72014 37.9395 5.65808C38.1793 4.81956 38.9426 3.82922 40.154 3.82922C41.6947 3.82922 42.337 4.41109 42.5529 5.27812C42.2846 4.08432 41.2613 3.68818 40.2412 3.68818C40.2103 3.68818 40.1795 3.68818 40.1486 3.68895" fill="url(#paint17_linear_1305_327)"/>
<path d="M29.024 26.6957C27.8296 27.9165 27.2883 28.2956 27.3122 29.0548C27.3269 29.5018 27.3623 30.6047 27.3639 30.7688C27.3639 30.8806 27.3747 30.9877 27.1857 31.0863C27.0932 31.1364 26.9321 31.1364 26.8503 31.1364C26.5249 31.1364 23.3789 30.8297 22.2747 30.8297C21.1705 30.8297 20.2236 30.9522 19.6545 31.0948C19.5612 31.1164 19.3229 31.1017 19.2265 30.9592C19.1757 30.8852 19.1587 30.8097 19.1541 30.7441C19.1302 30.9592 19.1101 31.2112 19.1101 31.3191C19.3083 31.2806 19.7771 31.2158 20.3809 31.1703C21.1543 31.1095 22.0302 31.1202 22.6132 31.1202C23.1969 31.1202 27.5273 31.3445 27.5435 31.3453C27.515 31.0124 27.4718 30.2208 27.4595 29.7268C27.4556 29.5989 27.4556 29.6004 27.4448 29.2467C27.4448 28.8598 27.5189 28.4082 27.8998 28.0051C28.1049 27.7824 28.903 26.8976 29.7473 25.9581C29.4705 26.2371 29.2206 26.4938 29.024 26.6957" fill="url(#paint18_linear_1305_327)"/>
<path d="M32.6451 23.0789C32.7677 23.0967 32.8734 23.166 32.9682 23.2531C33.1926 23.4604 36.1112 25.5706 36.6911 25.9883C36.9386 26.164 37.1668 26.2881 37.4028 26.3698C37.2046 26.2311 36.9123 26.0091 36.5291 25.7147C35.9708 25.2831 35.2584 24.7213 34.5412 24.1533C33.9359 23.6732 33.3291 23.1884 32.8125 22.7714C32.804 22.9533 32.6914 23.0504 32.6451 23.0789" fill="url(#paint19_linear_1305_327)"/>
<path d="M39.6441 20.0492C39.6133 20.1247 39.5763 20.2272 39.5763 20.3737C39.5763 20.5548 39.6349 20.806 39.8678 21.142C40.0073 21.3393 40.1423 21.5343 40.2718 21.7216C42.2998 24.7057 43.7132 27.5912 44.2475 28.9384C44.3647 29.2644 44.3409 29.4255 44.2352 29.5711C44.2352 29.5711 43.1796 30.6509 43.0524 30.8528C42.9976 30.9337 42.9568 31.0016 42.8835 31.0648C42.8118 31.1303 42.6252 31.1719 42.4486 31.1572C40.8887 31.0116 39.1954 30.9492 38.3464 30.9492C37.2422 30.9492 36.5983 31.0563 36.2313 31.0655C36.0324 31.0709 35.8936 31.0247 35.8697 30.9915C35.8666 30.9861 35.8643 30.9815 35.8596 30.9769C35.8442 31.1318 35.8342 31.2482 35.8303 31.3006C36.4989 31.1796 37.4002 31.1287 38.4011 31.1287C38.7188 31.1287 39.0457 31.1341 39.3812 31.1426C41.0274 31.1935 42.9413 31.3453 42.946 31.3453C42.9506 31.343 43.8643 30.1792 44.4303 29.7099C44.5305 29.6305 44.5691 29.6367 44.5691 29.5588C44.5691 29.5056 44.5398 29.4062 44.4912 29.2706C43.9021 27.5851 41.6567 23.4225 39.9109 21.1089C39.7444 20.8877 39.6333 20.5925 39.6333 20.3868C39.6326 20.1193 39.7721 19.9243 39.9155 19.8134C40.0358 19.7139 40.3327 19.4612 40.7214 19.075C40.1184 19.5274 39.6958 19.8866 39.6441 20.0492" fill="url(#paint20_linear_1305_327)"/>
<path d="M19.8017 15.8964C19.137 15.945 18.814 16.0251 18.7492 16.0413C18.6844 16.0559 18.6451 16.0513 18.642 16.0513C18.6582 16.0775 18.6836 16.1276 18.6959 16.1476C18.7129 16.1415 18.7384 16.1315 18.7877 16.1176C19.1879 16.0035 20.0793 15.9496 21.192 15.9457C22.2522 15.9457 23.4104 15.9534 24.0103 15.9819C24.547 16.0074 25.305 16.0798 25.9103 16.4105C26.4732 16.7241 27.6938 17.5704 27.7516 17.5195C27.2566 17.1704 26.7323 16.8158 26.2573 16.5261C25.6311 16.1338 25.0358 15.8633 24.8585 15.8687C22.9539 15.8386 22.9539 15.8386 21.8327 15.8386C20.9599 15.8386 20.131 15.8717 19.8017 15.8964" fill="url(#paint21_linear_1305_327)"/>
<path d="M18.9535 10.4621C18.9828 10.4652 19.0268 10.4636 19.0807 10.4629C19.2635 10.4582 19.5657 10.4552 19.8403 10.5862C20.3245 10.8259 21.5559 11.7353 21.7456 11.9326C21.9777 12.2008 22.2121 12.1738 22.0055 11.995C21.2837 11.3245 20.1911 10.5515 19.6776 10.4451C19.4964 10.4035 19.2427 10.3835 19.0352 10.375C18.8779 10.365 18.8895 10.1808 18.8433 10.1469C18.8487 10.1793 18.8579 10.4559 18.9535 10.4621" fill="url(#paint22_linear_1305_327)"/>
<path d="M17.8209 15.5152C17.4808 15.5221 16.6188 15.9506 16.4869 16.0369C16.2864 16.1487 16.1993 16.1518 16.0736 16.0138C16.1314 16.1533 16.2286 16.2373 16.3165 16.208C16.4052 16.1772 17.4392 15.6392 17.8972 15.6392C18.046 15.6392 18.09 15.6431 18.208 15.6909C18.137 15.5707 18.0584 15.5144 17.844 15.5144C17.8363 15.5144 17.8286 15.5144 17.8209 15.5152" fill="url(#paint23_linear_1305_327)"/>
<path d="M27.9191 2.53152C27.6847 2.56928 26.9345 2.7712 26.8558 2.79818C26.7749 2.82361 26.7316 2.84982 26.6784 2.9369C26.6252 3.02168 26.6021 3.20896 26.6245 3.27986C26.6468 3.35462 26.7224 3.41011 26.8381 3.36156C26.9969 3.29528 27.9261 2.95386 28.0895 2.90222C28.1605 2.87833 28.1898 2.84288 28.2037 2.80589C28.2276 2.745 28.2345 2.66485 28.2276 2.60165C28.2183 2.52921 28.1721 2.50763 28.105 2.50763C28.0533 2.50763 27.9885 2.52073 27.9191 2.53152Z" fill="url(#paint24_linear_1305_327)"/>
<path d="M27.8927 2.61076C27.9968 2.59226 28.0477 2.60228 28.0531 2.65931C28.0578 2.71866 28.0531 2.75488 28.0493 2.778C28.0431 2.80883 28.0308 2.82655 27.9791 2.84582C27.8727 2.88281 27.1934 3.12481 27.0299 3.19341C26.8795 3.2566 26.8032 3.22115 26.7901 3.15872C26.777 3.09399 26.8009 2.99302 26.8263 2.94755C26.8533 2.90285 26.8926 2.8728 26.9482 2.85507C27.0708 2.81114 27.7007 2.64621 27.8927 2.61076Z" fill="#231F20"/>
<path d="M28.9062 3.5938C26.9815 3.64389 25.3036 4.45852 24.3613 4.84386C25.0329 4.61343 26.6646 3.94523 28.4844 3.83656C29.4845 3.77568 29.8854 3.86046 30.2517 4.27124C30.7838 4.85697 32.0221 6.51936 32.4632 7.36327C32.6374 7.69776 32.7146 7.99756 32.6914 8.25343C32.656 8.64109 32.5171 8.92548 32.4076 9.18058C32.2156 9.62065 31.507 11.0595 31.3844 11.2684C30.8686 12.1616 30.3743 12.1308 29.8484 12.009C29.8754 12.0237 30.1168 12.1377 30.3381 12.2271C30.9503 12.4776 31.3382 12.13 31.6882 11.4726C31.8016 11.2676 32.5534 9.67844 32.7346 9.21988C32.8495 8.93241 32.9813 8.64726 32.9813 8.28195C32.9813 8.04303 32.9151 7.6754 32.7516 7.33476C32.3375 6.46233 31.0274 4.80456 30.5046 4.17952C30.099 3.70015 29.7289 3.59148 29.0897 3.59148C29.0311 3.59148 28.9694 3.59226 28.9062 3.5938Z" fill="url(#paint25_linear_1305_327)"/>
<path d="M26.6359 21.6464C25.9527 22.7331 24.968 24.3547 24.8138 24.7115C24.6712 25.0391 24.6249 25.3373 24.6202 25.7242C24.6202 25.7281 24.6765 27.4783 24.6765 27.4883C24.6765 27.7049 24.6442 27.8822 24.5285 28.0193C24.4105 28.155 24.2324 28.222 23.9856 28.2575C23.58 28.3161 21.667 28.6112 21.1411 28.7184C20.6314 28.8278 20.4201 29.0621 20.3068 29.4004C20.2243 29.644 20.1302 30.0578 20.1317 30.2397C20.1317 30.2397 20.1248 30.3391 20.1317 30.3391C20.1171 30.5326 20.1865 30.5218 20.1865 30.5218C20.1865 30.5218 22.4011 30.3515 23.7189 30.4301C25.0374 30.5072 26.8564 30.679 26.8564 30.679C26.8564 30.679 24.9418 30.3214 23.6394 30.2405C22.9902 30.202 22.2345 30.2174 21.6392 30.2336C21.0409 30.249 20.6029 30.2652 20.5952 30.2251C20.5836 30.1711 20.5505 30.0887 20.5644 29.9291C20.5859 29.8259 20.6129 29.7079 20.6492 29.5839C20.734 29.2602 20.8851 28.975 21.3894 28.8579C21.8729 28.7353 23.732 28.4278 24.0844 28.3415C24.4329 28.2536 24.6588 28.1242 24.7066 27.8398C24.7197 27.7527 24.7313 27.5569 24.7305 27.3758C24.7305 27.002 24.6642 26.0117 24.6666 25.95C24.6781 25.3404 24.7051 25.0182 25.1037 24.3593C25.7214 23.3327 28.047 19.7991 29.2036 18.5729C29.2776 18.4951 29.3115 18.4288 29.4395 18.4496C29.4149 18.4442 29.3895 18.4365 29.364 18.4242C29.344 18.4141 29.2514 18.3456 29.1296 18.2554C28.8412 18.5806 27.5419 20.2022 26.6359 21.6464" fill="url(#paint26_linear_1305_327)"/>
<path d="M1.55298 38.6726V43.8309H2.9741V42.244H4.24716C6.97682 42.244 8.36786 41.3685 8.36786 40.4005C8.36786 39.3608 6.87426 38.6726 4.37054 38.6726H1.55298ZM2.9741 41.6876V39.2483H4.09218C5.24727 39.2483 6.77171 39.4433 6.77171 40.4005C6.77171 41.0502 6.27667 41.6876 3.90711 41.6876H2.9741V41.6876Z" fill="#0D224A"/>
<path d="M16.4714 43.8311V43.1822H12.9691C12.2165 43.1822 11.9999 42.8415 11.9999 42.265V41.5097H16.1105V40.8624H11.9999V39.3202H16.2964V38.6728H10.5787V42.2959C10.5787 43.2646 10.9805 43.8311 12.289 43.8311H16.4714Z" fill="#0D224A"/>
<path d="M25.5663 38.6728H24.1452V43.0265C23.7535 43.1621 23.2292 43.2847 22.4658 43.2847C21.3739 43.2847 20.2921 43.0072 20.2921 42.0485V38.6728H18.871V42.1517C18.871 43.5737 20.2921 43.9945 21.8582 43.9945C23.3518 43.9945 24.5678 43.6854 25.5663 43.2646V38.6728Z" fill="#0D224A"/>
<path d="M29.5181 41.2665C29.5181 39.8353 30.7341 39.1648 32.2169 39.1648C33.4321 39.1648 34.3706 39.5154 35.2565 39.8152V38.9497C34.3189 38.6731 33.4321 38.5174 32.2169 38.5174C29.8381 38.5174 27.9011 39.6087 27.9011 41.2665C27.9011 43.0183 29.8381 43.9947 32.2169 43.9947C33.4028 43.9947 34.6489 43.7489 35.4115 43.5539V41.5092H34.0105V43.0383C33.4954 43.2125 33.1237 43.3473 32.321 43.3473C30.7033 43.3473 29.5181 42.5451 29.5181 41.2665Z" fill="#0D224A"/>
<path d="M43.894 43.8311V43.1822H40.3902C39.6391 43.1822 39.4225 42.8415 39.4225 42.265V41.5097H43.5339V40.8624H39.4225V39.3202H43.719V38.6728H38.0013V42.2959C38.0013 43.2646 38.4023 43.8311 39.7108 43.8311H43.894Z" fill="#0D224A"/>
<path d="M50.061 38.5176C47.6822 38.5176 45.7352 39.6297 45.7352 41.2936C45.7352 43.0385 47.6822 43.9949 50.061 43.9949C52.4414 43.9949 54.3776 43.0385 54.3776 41.2936C54.3776 39.6297 52.4414 38.5176 50.061 38.5176ZM50.061 43.4192C48.4441 43.4192 47.3522 42.5853 47.3522 41.2936C47.3522 39.8763 48.5682 39.1649 50.061 39.1649C51.5446 39.1649 52.7599 39.8763 52.7599 41.2936C52.7599 42.5853 51.668 43.4192 50.061 43.4192Z" fill="#0D224A"/>
<path d="M55.5441 39.4125H58.377V43.8309H59.7989V39.4125H62.6319V38.6727H55.5441V39.4125Z" fill="#0D224A"/>
<defs>
<linearGradient id="paint0_linear_1305_327" x1="44.257" y1="5.12687" x2="35.1364" y2="19.1032" gradientUnits="userSpaceOnUse">
<stop stop-color="#D3D3D3"/>
<stop offset="0.368118" stop-color="#4F4C4C"/>
<stop offset="0.813187" stop-color="#B0AFAF"/>
<stop offset="1" stop-color="#231F20"/>
</linearGradient>
<linearGradient id="paint1_linear_1305_327" x1="18.607" y1="15.2653" x2="20.2604" y2="11.4765" gradientUnits="userSpaceOnUse">
<stop stop-color="#B2B1B1"/>
<stop offset="0.199997" stop-color="#B2B1B1"/>
<stop offset="0.989655" stop-color="#656263"/>
<stop offset="1" stop-color="#656263"/>
</linearGradient>
<linearGradient id="paint2_linear_1305_327" x1="41.208" y1="6.16845" x2="39.1766" y2="5.97636" gradientUnits="userSpaceOnUse">
<stop stop-color="#4F4C4C"/>
<stop offset="0.358612" stop-color="white"/>
<stop offset="0.824127" stop-color="#4F4C4C"/>
<stop offset="1" stop-color="#393536"/>
</linearGradient>
<linearGradient id="paint3_linear_1305_327" x1="22.8974" y1="17.1926" x2="24.5435" y2="13.4206" gradientUnits="userSpaceOnUse">
<stop stop-color="#D3D3D3"/>
<stop offset="0.368118" stop-color="#B2B1B1"/>
<stop offset="0.989655" stop-color="#231F20"/>
<stop offset="1" stop-color="#231F20"/>
</linearGradient>
<linearGradient id="paint4_linear_1305_327" x1="39.2" y1="35.3258" x2="9.29891" y2="4.8912" gradientUnits="userSpaceOnUse">
<stop stop-color="#918F90"/>
<stop offset="0.120865" stop-color="#9C9A9B"/>
<stop offset="0.170319" stop-color="#7B7979"/>
<stop offset="0.307678" stop-color="#918F90"/>
<stop offset="0.472519" stop-color="#F4F4F4"/>
<stop offset="0.840652" stop-color="#7F7D7E"/>
<stop offset="0.961533" stop-color="#4F4C4C"/>
<stop offset="1" stop-color="#4F4C4C"/>
</linearGradient>
<radialGradient id="paint5_radial_1305_327" cx="0" cy="0" r="1" gradientUnits="userSpaceOnUse" gradientTransform="translate(26.2212 8.82608) scale(6.80482 6.80136)">
<stop stop-color="white"/>
<stop offset="0.467026" stop-color="white"/>
<stop offset="0.747238" stop-color="#9C9A9B"/>
<stop offset="0.846146" stop-color="#7B7979"/>
<stop offset="1" stop-color="#4F4C4C"/>
</radialGradient>
<radialGradient id="paint6_radial_1305_327" cx="0" cy="0" r="1" gradientUnits="userSpaceOnUse" gradientTransform="translate(27.7492 7.49252) scale(2.40319 2.31459)">
<stop stop-color="white"/>
<stop offset="0.227585" stop-color="white"/>
<stop offset="1" stop-color="#231F20"/>
</radialGradient>
<radialGradient id="paint7_radial_1305_327" cx="0" cy="0" r="1" gradientUnits="userSpaceOnUse" gradientTransform="translate(26.2434 3.7102) scale(2.83198 2.83055)">
<stop stop-color="white"/>
<stop offset="0.571426" stop-color="#F7F7F7"/>
<stop offset="0.862625" stop-color="#231F20"/>
<stop offset="1" stop-color="#231F20"/>
</radialGradient>
<radialGradient id="paint8_radial_1305_327" cx="0" cy="0" r="1" gradientUnits="userSpaceOnUse" gradientTransform="translate(30.9952 9.228) scale(9.3812 9.37644)">
<stop stop-color="white"/>
<stop offset="0.252747" stop-color="white"/>
<stop offset="0.346146" stop-color="#A7A6A6"/>
<stop offset="0.412079" stop-color="#7B7979"/>
<stop offset="0.472519" stop-color="#4F4C4C"/>
<stop offset="1" stop-color="#4F4C4C"/>
</radialGradient>
<linearGradient id="paint9_linear_1305_327" x1="24.3216" y1="14.6783" x2="19.6764" y2="15.8402" gradientUnits="userSpaceOnUse">
<stop stop-color="#F4F4F4"/>
<stop offset="0.25824" stop-color="#BDBCBC"/>
<stop offset="0.648346" stop-color="#F4F4F4"/>
<stop offset="0.895599" stop-color="white"/>
<stop offset="1" stop-color="white"/>
</linearGradient>
<linearGradient id="paint10_linear_1305_327" x1="24.1169" y1="2.94413" x2="45.5156" y2="29.0285" gradientUnits="userSpaceOnUse">
<stop stop-color="white"/>
<stop offset="0.0689545" stop-color="#E3E2E2"/>
<stop offset="0.156494" stop-color="white"/>
<stop offset="0.329666" stop-color="#D3D3D3"/>
<stop offset="0.502029" stop-color="white"/>
<stop offset="0.979645" stop-color="#BBBABA"/>
<stop offset="1" stop-color="#BBBABA"/>
</linearGradient>
<linearGradient id="paint11_linear_1305_327" x1="18.6467" y1="7.9878" x2="40.5426" y2="28.7953" gradientUnits="userSpaceOnUse">
<stop stop-color="#DEDEDE"/>
<stop offset="0.506897" stop-color="#4F4C4C"/>
<stop offset="1" stop-color="#DEDEDE"/>
</linearGradient>
<linearGradient id="paint12_linear_1305_327" x1="29.1708" y1="18.0403" x2="20.6804" y2="30.7399" gradientUnits="userSpaceOnUse">
<stop stop-color="#C8C7C8"/>
<stop offset="0.0999908" stop-color="white"/>
<stop offset="0.349197" stop-color="#F0F0F0"/>
<stop offset="0.538452" stop-color="white"/>
<stop offset="0.714279" stop-color="#393536"/>
<stop offset="0.84137" stop-color="white"/>
<stop offset="0.910339" stop-color="#514E4F"/>
<stop offset="1" stop-color="#868484"/>
</linearGradient>
<linearGradient id="paint13_linear_1305_327" x1="28.2624" y1="24.6994" x2="30.4962" y2="26.0158" gradientUnits="userSpaceOnUse">
<stop stop-color="white"/>
<stop offset="0.520676" stop-color="#CFCECE"/>
<stop offset="0.835159" stop-color="#4F4C4C"/>
<stop offset="1" stop-color="#393536"/>
</linearGradient>
<linearGradient id="paint14_linear_1305_327" x1="29.4908" y1="18.5725" x2="31.8569" y2="15.7383" gradientUnits="userSpaceOnUse">
<stop stop-color="white"/>
<stop offset="0.208786" stop-color="white"/>
<stop offset="0.5" stop-color="#DEDEDE"/>
<stop offset="0.945053" stop-color="#9C9A9B"/>
<stop offset="1" stop-color="#959494"/>
</linearGradient>
<linearGradient id="paint15_linear_1305_327" x1="34.752" y1="2.76487" x2="37.837" y2="5.92251" gradientUnits="userSpaceOnUse">
<stop stop-color="#231F20"/>
<stop offset="0.179306" stop-color="#F4F4F4"/>
<stop offset="0.5793" stop-color="#444041"/>
<stop offset="1" stop-color="#231F20"/>
</linearGradient>
<linearGradient id="paint16_linear_1305_327" x1="35.1341" y1="15.9027" x2="38.6443" y2="13.597" gradientUnits="userSpaceOnUse">
<stop stop-color="#231F20"/>
<stop offset="0.179306" stop-color="#F4F4F4"/>
<stop offset="0.5793" stop-color="#444041"/>
<stop offset="1" stop-color="#231F20"/>
</linearGradient>
<linearGradient id="paint17_linear_1305_327" x1="37.9383" y1="4.67456" x2="42.5515" y2="4.67456" gradientUnits="userSpaceOnUse">
<stop stop-color="#656263"/>
<stop offset="0.285706" stop-color="#D3D3D3"/>
<stop offset="0.532959" stop-color="#656263"/>
<stop offset="0.75824" stop-color="#393536"/>
<stop offset="1" stop-color="#231F20"/>
</linearGradient>
<linearGradient id="paint18_linear_1305_327" x1="19.1092" y1="28.652" x2="29.7465" y2="28.652" gradientUnits="userSpaceOnUse">
<stop stop-color="#231F20"/>
<stop offset="0.179306" stop-color="#9E9D9D"/>
<stop offset="0.5793" stop-color="#444041"/>
<stop offset="1" stop-color="#231F20"/>
</linearGradient>
<linearGradient id="paint19_linear_1305_327" x1="32.6444" y1="24.5712" x2="37.4019" y2="24.5712" gradientUnits="userSpaceOnUse">
<stop stop-color="#231F20"/>
<stop offset="0.179306" stop-color="#9E9D9D"/>
<stop offset="0.5793" stop-color="#444041"/>
<stop offset="1" stop-color="#231F20"/>
</linearGradient>
<linearGradient id="paint20_linear_1305_327" x1="35.8297" y1="25.2108" x2="44.5682" y2="25.2108" gradientUnits="userSpaceOnUse">
<stop stop-color="#231F20"/>
<stop offset="0.179306" stop-color="#9E9D9D"/>
<stop offset="0.5793" stop-color="#444041"/>
<stop offset="1" stop-color="#231F20"/>
</linearGradient>
<linearGradient id="paint21_linear_1305_327" x1="18.642" y1="16.6793" x2="27.7509" y2="16.6793" gradientUnits="userSpaceOnUse">
<stop stop-color="#7B7979"/>
<stop offset="0.179306" stop-color="#D3D3D3"/>
<stop offset="1" stop-color="#231F20"/>
</linearGradient>
<linearGradient id="paint22_linear_1305_327" x1="18.843" y1="11.0714" x2="22.005" y2="11.0714" gradientUnits="userSpaceOnUse">
<stop stop-color="#444041"/>
<stop offset="0.179306" stop-color="#D3D3D3"/>
<stop offset="1" stop-color="#231F20"/>
</linearGradient>
<linearGradient id="paint23_linear_1305_327" x1="16.0737" y1="15.8619" x2="18.2073" y2="15.8619" gradientUnits="userSpaceOnUse">
<stop stop-color="#7B7979"/>
<stop offset="0.179306" stop-color="#BDBCBC"/>
<stop offset="1" stop-color="#444041"/>
</linearGradient>
<linearGradient id="paint24_linear_1305_327" x1="27.2926" y1="2.6497" x2="27.5244" y2="3.15976" gradientUnits="userSpaceOnUse">
<stop stop-color="white"/>
<stop offset="0.115372" stop-color="#EEEEEE"/>
<stop offset="0.906586" stop-color="#5A5758"/>
<stop offset="1" stop-color="#5A5758"/>
</linearGradient>
<linearGradient id="paint25_linear_1305_327" x1="24.3607" y1="7.91161" x2="32.9803" y2="7.91161" gradientUnits="userSpaceOnUse">
<stop stop-color="white"/>
<stop offset="0.979645" stop-color="#231F20"/>
<stop offset="1" stop-color="#231F20"/>
</linearGradient>
<linearGradient id="paint26_linear_1305_327" x1="23.7971" y1="29.277" x2="26.989" y2="17.9819" gradientUnits="userSpaceOnUse">
<stop stop-color="#E9E9E9"/>
<stop offset="0.0659332" stop-color="#5A5758"/>
<stop offset="0.351715" stop-color="#918F90"/>
<stop offset="0.604385" stop-color="#B7B5B6"/>
<stop offset="0.958618" stop-color="#706D6E"/>
<stop offset="1" stop-color="#B2B1B1"/>
</linearGradient>
</defs>
</svg>
