<svg width="64" height="64" viewBox="0 0 64 64" fill="none" xmlns="http://www.w3.org/2000/svg">
<g clip-path="url(#clip0_103_8386)">
<path fill-rule="evenodd" clip-rule="evenodd" d="M28.9093 46.8631C26.1225 45.1175 24.0695 39.0936 24.0695 31.9363C24.0695 31.6737 24.0711 31.4148 24.077 31.156L24.0804 31.1598C16.3292 29.9416 10.7288 26.6042 10.5854 22.6577L10.5626 22.7032C8.66607 25.0602 7.58352 27.7853 7.58352 30.689C7.58352 39.2334 16.9627 46.2344 28.8592 46.8536L28.9093 46.8631ZM3.99994 31.3125C3.99994 21.7519 15.8975 14.0003 30.5749 14.0003C45.2519 14.0003 57.1498 21.7519 57.1498 31.3125C57.1498 40.873 45.2516 48.6248 30.5749 48.6248C15.8975 48.6248 3.99994 40.8728 3.99994 31.3125ZM30.5749 16.4988C33.4082 16.4988 35.8183 20.7968 36.7111 26.7938L36.7144 26.7847C42.2266 25.9267 46.0861 23.9473 46.0861 21.6441C46.0861 18.5527 39.1407 16.0496 30.5749 16.0496C22.0084 16.0496 15.0636 18.5529 15.0636 21.6441C15.0636 23.9473 18.9225 25.9267 24.4353 26.7847L24.4387 26.7938C25.3314 20.797 27.7421 16.4988 30.5749 16.4988ZM32.2901 46.8534C44.1866 46.2344 53.5671 39.2332 53.5671 30.6888C53.5671 27.7853 52.4832 25.0602 50.5869 22.703L50.5637 22.6575C50.4203 26.604 44.8214 29.9414 37.0693 31.1596L37.0727 31.1558C37.078 31.4146 37.0807 31.6735 37.0807 31.9361C37.0807 39.0933 35.0262 45.1173 32.241 46.8629L32.2901 46.8534ZM30.5749 27.2394C31.8442 27.2394 33.0782 27.1853 34.2589 27.0812L34.2572 27.0831C33.6696 23.2388 32.2425 20.5257 30.5749 20.5257C28.9072 20.5257 27.4803 23.2388 26.8919 27.0831L26.8904 27.0812C28.0711 27.1853 29.3055 27.2394 30.5749 27.2394ZM30.5749 41.4756C32.708 41.4756 34.448 37.0365 34.5409 31.4687L34.5523 31.4727C33.2665 31.5917 31.9365 31.6539 30.5751 31.6539C29.2124 31.6539 27.8837 31.5917 26.5979 31.4727L26.6099 31.4687C26.7013 37.0363 28.4409 41.4756 30.5749 41.4756Z" fill="#E2001A"/>
</g>
<defs>
<clipPath id="clip0_103_8386">
<rect width="56" height="36.2353" fill="white" transform="translate(4 14)"/>
</clipPath>
</defs>
</svg>
