<svg width="56" height="56" viewBox="0 0 56 56" fill="none" xmlns="http://www.w3.org/2000/svg">
<g clip-path="url(#clip0_1305_110)">
<path d="M28 52.7C14.5 52.7 3.4 41.5 3.4 28C3.4 25.2 3.9 22.5 4.8 19.9L19.2 47.9C19.4 48.3 19.6 48.6 20.1 48.6C20.6 48.6 20.8 48.3 21 47.9L27.7 33C27.8 32.8 27.9 32.7 28 32.7C28.2 32.7 28.2 32.9 28.3 33L35.1 47.9C35.3 48.3 35.5 48.6 36 48.6C36.5 48.6 36.7 48.3 36.9 47.9L51.3 19.9C52.2 22.4 52.7 25.1 52.7 28C52.6 41.5 41.5 52.7 28 52.7V52.7ZM28 21.6C27.8 21.6 27.8 21.4 27.7 21.3L20 4.7C22.5 3.8 25.2 3.3 28 3.3C30.8 3.3 33.5 3.8 36 4.7L28.3 21.3C28.2 21.4 28.2 21.6 28 21.6ZM19.9 39.6C19.7 39.6 19.7 39.4 19.6 39.3L7 15.1C9.2 11.5 12.4 8.5 16.1 6.4L25 25.6C25.2 26 25.4 26.1 25.7 26.1H30.3C30.6 26.1 30.8 26 31 25.6L39.8 6.4C43.5 8.5 46.7 11.5 48.9 15.1L36.4 39.3C36.3 39.5 36.2 39.6 36.1 39.6C35.9 39.6 35.9 39.4 35.8 39.3L31 28.7C30.8 28.3 30.6 28.2 30.3 28.2H25.7C25.4 28.2 25.2 28.3 25 28.7L20.2 39.3C20.1 39.4 20.1 39.6 19.9 39.6V39.6ZM28 56C43.5 56 56 43.5 56 28C56 12.5 43.5 0 28 0C12.5 0 0 12.5 0 28C0 43.5 12.5 56 28 56Z" fill="#001E50"/>
</g>
<defs>
<clipPath id="clip0_1305_110">
<rect width="56" height="56" fill="white"/>
</clipPath>
</defs>
</svg>
