<svg width="26" height="26" viewBox="0 0 26 26" fill="none" xmlns="http://www.w3.org/2000/svg">
<path d="M12 22.25C10.5 22.25 2.625 17 2.625 10.625C2.62519 9.49825 3.01561 8.40634 3.72989 7.53492C4.44416 6.6635 5.4382 6.06635 6.54299 5.845C7.64778 5.62366 8.79514 5.79178 9.78999 6.32078C10.7848 6.84978 11.5658 7.707 12 8.74671C12.4342 7.707 13.2152 6.84978 14.21 6.32078C15.2049 5.79178 16.3522 5.62366 17.457 5.845C18.5618 6.06635 19.5558 6.66349 20.2701 7.53492C20.9844 8.40634 21.3748 9.49825 21.375 10.625C21.375 14.1797 18.9265 17.3847 16.5 19.5247" stroke="#333333" stroke-width="1.5" stroke-linecap="round" stroke-linejoin="round"/>
<circle cx="21" cy="5" r="5" fill="#F04E49"/>
</svg>
