<svg width="159" height="34" viewBox="0 0 159 34" fill="none" xmlns="http://www.w3.org/2000/svg">
<path d="M20.924 2.552H27.216V33.352H21.1V25.784C21.1587 24.5227 21.232 22.6453 21.32 20.152C21.4373 17.6587 21.5253 15.796 21.584 14.564L21.364 14.476L18.592 22.572L17.052 26.752H10.892L9.352 22.572L6.58 14.476L6.36 14.564C6.41867 15.796 6.492 17.6587 6.58 20.152C6.668 22.6453 6.74133 24.5227 6.8 25.784V33.352H0.728001V2.552H7.02L11.86 14.212C12.9453 16.9107 13.62 18.7 13.884 19.58H14.06C14.324 18.7 14.9987 16.9107 16.084 14.212L20.924 2.552Z" fill="#333333"/>
<path d="M44.5338 25.916H50.6058C50.3711 28.4387 49.4764 30.404 47.9218 31.812C46.3671 33.1907 44.2991 33.88 41.7178 33.88C39.1071 33.88 37.0538 33.0733 35.5578 31.46C34.0911 29.8173 33.3578 27.5587 33.3578 24.684V18.48C33.3578 15.6347 34.0911 13.42 35.5578 11.836C37.0538 10.252 39.1218 9.46 41.7618 9.46C44.4604 9.46 46.5578 10.252 48.0538 11.836C49.5498 13.42 50.2978 15.6347 50.2978 18.48V23.716H39.3858V24.684C39.3858 27.0013 40.1924 28.16 41.8058 28.16C42.6858 28.16 43.3018 27.9987 43.6538 27.676C44.0351 27.324 44.3284 26.7373 44.5338 25.916ZM41.8058 15.004C40.1924 15.004 39.3858 16.1333 39.3858 18.392V19.624H44.3578V18.392C44.3578 16.1333 43.5071 15.004 41.8058 15.004Z" fill="#333333"/>
<path d="M66.0941 9.46C67.1795 9.46 68.0301 9.636 68.6461 9.988V15.708C67.7661 15.2973 66.8275 15.092 65.8301 15.092C63.1315 15.092 61.7821 16.2947 61.7821 18.7V33.352H55.7981V10.032H59.7581L60.1981 12.496C61.4595 10.472 63.4248 9.46 66.0941 9.46Z" fill="#333333"/>
<path d="M75.934 6.6C74.966 6.6 74.174 6.292 73.558 5.676C72.942 5.03067 72.634 4.23867 72.634 3.3C72.634 2.36133 72.942 1.584 73.558 0.967998C74.174 0.322666 74.966 0 75.934 0C76.8726 0 77.65 0.322666 78.266 0.967998C78.9113 1.584 79.234 2.36133 79.234 3.3C79.234 4.18 78.9113 4.95733 78.266 5.632C77.6206 6.27733 76.8433 6.6 75.934 6.6ZM72.898 33.352V10.032H78.926V33.352H72.898Z" fill="#333333"/>
<path d="M95.6594 1.452H101.511V33.396H97.4194L97.1554 31.328C95.6594 33.0293 93.9874 33.88 92.1394 33.88C89.8514 33.88 88.018 33.044 86.6394 31.372C85.2607 29.6707 84.5714 27.4413 84.5714 24.684V18.612C84.5714 15.8547 85.2607 13.64 86.6394 11.968C88.0474 10.296 89.8807 9.46 92.1394 9.46C93.4007 9.46 94.574 9.88533 95.6594 10.736V1.452ZM95.6594 24.684V18.612C95.6594 16.324 94.7794 15.18 93.0194 15.18C91.4647 15.18 90.6874 16.324 90.6874 18.612V24.684C90.6874 27.0013 91.4647 28.16 93.0194 28.16C94.7794 28.16 95.6594 27.0013 95.6594 24.684Z" fill="#333333"/>
<path d="M110.692 6.6C109.724 6.6 108.932 6.292 108.316 5.676C107.7 5.03067 107.392 4.23867 107.392 3.3C107.392 2.36133 107.7 1.584 108.316 0.967998C108.932 0.322666 109.724 0 110.692 0C111.631 0 112.408 0.322666 113.024 0.967998C113.67 1.584 113.992 2.36133 113.992 3.3C113.992 4.18 113.67 4.95733 113.024 5.632C112.379 6.27733 111.602 6.6 110.692 6.6ZM107.656 33.352V10.032H113.684V33.352H107.656Z" fill="#333333"/>
<path d="M127.778 9.46C130.535 9.46 132.559 10.2227 133.85 11.748C135.14 13.244 135.786 15.5027 135.786 18.524V33.352H131.034L130.682 31.152C129.684 33.0293 127.998 33.968 125.622 33.968C123.51 33.968 121.823 33.2933 120.562 31.944C119.3 30.5653 118.67 28.8053 118.67 26.664C118.67 24.2293 119.476 22.3813 121.09 21.12C122.732 19.8587 124.903 19.228 127.602 19.228H129.758V18.524C129.758 17.4093 129.596 16.588 129.274 16.06C128.98 15.5027 128.452 15.224 127.69 15.224C126.34 15.224 125.563 15.9133 125.358 17.292H119.33C119.447 14.828 120.239 12.9067 121.706 11.528C123.202 10.1493 125.226 9.46 127.778 9.46ZM129.758 26.004V24.288H127.734C125.768 24.288 124.786 25.08 124.786 26.664C124.786 27.3093 124.962 27.8373 125.314 28.248C125.695 28.6587 126.282 28.864 127.074 28.864C127.895 28.864 128.54 28.6147 129.01 28.116C129.508 27.588 129.758 26.884 129.758 26.004Z" fill="#333333"/>
<path d="M151.842 9.46C154.013 9.46 155.699 10.2813 156.902 11.924C158.105 13.5373 158.706 15.9133 158.706 19.052V33.352H152.678V19.052C152.678 16.4707 151.93 15.18 150.434 15.18C148.762 15.18 147.926 16.324 147.926 18.612V33.352H141.942V10.032H145.902L146.342 12.408C147.545 10.4427 149.378 9.46 151.842 9.46Z" fill="#333333"/>
</svg>
