<svg width="19" height="12" viewBox="0 0 19 12" fill="none" xmlns="http://www.w3.org/2000/svg">
<path fill-rule="evenodd" clip-rule="evenodd" d="M0.1875 5.75101C0.1875 5.44035 0.43934 5.18851 0.75 5.18851L9.7 5.18851C10.0107 5.18851 10.2625 5.44035 10.2625 5.75101C10.2625 6.06167 10.0107 6.31351 9.7 6.31351L0.75 6.31351C0.43934 6.31351 0.1875 6.06167 0.1875 5.75101Z" fill="#333333"/>
<path fill-rule="evenodd" clip-rule="evenodd" d="M9.42817 11.2445C9.24882 11.1455 9.13745 10.9568 9.13745 10.752V0.75C9.13745 0.439341 9.38929 0.1875 9.69995 0.1875C10.0106 0.1875 10.2625 0.439341 10.2625 0.75V9.73273L16.5818 5.751L12.0749 2.91127C11.8121 2.74566 11.7332 2.39833 11.8988 2.1355C12.0645 1.87266 12.4118 1.79384 12.6746 1.95945L17.9368 5.27509C18.1003 5.37809 18.1994 5.55778 18.1994 5.751C18.1994 5.94421 18.1003 6.12391 17.9368 6.22691L9.99981 11.2279C9.8265 11.3371 9.60752 11.3435 9.42817 11.2445Z" fill="#333333"/>
</svg>
